<svg width="123" height="96" viewBox="0 0 123 96" fill="none" xmlns="http://www.w3.org/2000/svg">
<g clip-path="url(#clip0_49_470)">
<path d="M22.2932 95.7897V89.4186C22.2932 86.9815 20.816 85.3856 18.2802 85.3856C17.0123 85.3856 15.6336 85.8062 14.6857 87.1918C13.9471 86.0289 12.8885 85.3856 11.3005 85.3856C10.2419 85.3856 9.18321 85.7072 8.34614 86.8701V85.5959H6.13037V95.7897H8.34614V90.1608C8.34614 88.3546 9.294 87.501 10.7712 87.501C12.2484 87.501 12.987 88.4536 12.987 90.1608V95.7897H15.2027V90.1608C15.2027 88.3546 16.2614 87.501 17.6278 87.501C19.1049 87.501 19.8435 88.4536 19.8435 90.1608V95.7897H22.2932ZM55.1605 85.5959H51.566V82.5155H49.3502V85.5959H47.3437V87.6124H49.3502V92.2887C49.3502 94.6268 50.2981 96 52.8339 96C53.7818 96 54.8404 95.6784 55.579 95.2577L54.9389 93.3402C54.2988 93.7608 53.5602 93.8722 53.0309 93.8722C51.9722 93.8722 51.5537 93.2289 51.5537 92.1773V87.6124H55.1482V85.5959H55.1605ZM73.9699 85.3732C72.702 85.3732 71.8527 86.0165 71.3233 86.8577V85.5835H69.1076V95.7773H71.3233V90.0371C71.3233 88.3423 72.0619 87.3773 73.4406 87.3773C73.8592 87.3773 74.3885 87.4887 74.8193 87.5876L75.4594 85.4598C75.0163 85.3732 74.3885 85.3732 73.9699 85.3732ZM45.5465 86.4371C44.4879 85.6949 43.0107 85.3732 41.4227 85.3732C38.8869 85.3732 37.2004 86.6474 37.2004 88.6639C37.2004 90.3588 38.4683 91.3237 40.6841 91.633L41.7428 91.7443C42.8999 91.9546 43.54 92.2763 43.54 92.8083C43.54 93.5505 42.6906 94.0825 41.2134 94.0825C39.7363 94.0825 38.5668 93.5505 37.8282 93.0186L36.7696 94.7134C37.9267 95.567 39.5147 95.9876 41.1026 95.9876C44.057 95.9876 45.7558 94.6021 45.7558 92.6969C45.7558 90.8907 44.3771 89.9382 42.2721 89.6165L41.2134 89.5052C40.2656 89.3938 39.527 89.1835 39.527 88.5526C39.527 87.8103 40.2656 87.3897 41.435 87.3897C42.7029 87.3897 43.9708 87.9217 44.611 88.2433L45.5465 86.4371ZM104.498 85.3732C103.23 85.3732 102.381 86.0165 101.852 86.8577V85.5835H99.636V95.7773H101.852V90.0371C101.852 88.3423 102.59 87.3773 103.969 87.3773C104.388 87.3773 104.917 87.4887 105.348 87.5876L105.988 85.4845C105.557 85.3732 104.929 85.3732 104.498 85.3732ZM76.1857 90.6928C76.1857 93.7732 78.303 96 81.5774 96C83.0546 96 84.1133 95.6784 85.1719 94.8371L84.1133 93.0309C83.2639 93.6742 82.4268 93.9835 81.4666 93.9835C79.6694 93.9835 78.4015 92.7093 78.4015 90.6928C78.4015 88.7753 79.6694 87.501 81.4666 87.4021C82.4145 87.4021 83.2639 87.7237 84.1133 88.3547L85.1719 86.5485C84.1133 85.6949 83.0546 85.3856 81.5774 85.3856C78.303 85.3732 76.1857 87.6124 76.1857 90.6928ZM96.6816 90.6928V85.5959H94.4658V86.8701C93.7272 85.9175 92.6686 85.3856 91.2899 85.3856C88.434 85.3856 86.2182 87.6124 86.2182 90.6928C86.2182 93.7732 88.434 96 91.2899 96C92.7671 96 93.8257 95.4681 94.4658 94.5155V95.7897H96.6816V90.6928ZM88.5448 90.6928C88.5448 88.8866 89.7019 87.4021 91.61 87.4021C93.4072 87.4021 94.6751 88.7876 94.6751 90.6928C94.6751 92.499 93.4072 93.9835 91.61 93.9835C89.7142 93.8722 88.5448 92.4866 88.5448 90.6928ZM62.0294 85.3732C59.075 85.3732 56.9577 87.501 56.9577 90.6804C56.9577 93.8722 59.075 95.9876 62.1402 95.9876C63.6174 95.9876 65.0945 95.567 66.264 94.6021L65.2053 93.0062C64.356 93.6495 63.2973 94.0701 62.251 94.0701C60.8723 94.0701 59.5059 93.4268 59.1858 91.633H66.6825C66.6825 91.3114 66.6825 91.101 66.6825 90.7794C66.781 87.501 64.873 85.3732 62.0294 85.3732ZM62.0294 87.2907C63.4081 87.2907 64.356 88.1443 64.5652 89.7278H59.2843C59.4936 88.3546 60.4414 87.2907 62.0294 87.2907ZM117.079 90.6928V81.5629H114.863V86.8701C114.125 85.9175 113.066 85.3856 111.687 85.3856C108.831 85.3856 106.616 87.6124 106.616 90.6928C106.616 93.7732 108.831 96 111.687 96C113.164 96 114.223 95.4681 114.863 94.5155V95.7897H117.079V90.6928ZM108.942 90.6928C108.942 88.8866 110.099 87.4021 112.007 87.4021C113.805 87.4021 115.073 88.7876 115.073 90.6928C115.073 92.499 113.805 93.9835 112.007 93.9835C110.099 93.8722 108.942 92.4866 108.942 90.6928ZM34.7631 90.6928V85.5959H32.5473V86.8701C31.8087 85.9175 30.7501 85.3856 29.3714 85.3856C26.5155 85.3856 24.2997 87.6124 24.2997 90.6928C24.2997 93.7732 26.5155 96 29.3714 96C30.8485 96 31.9072 95.4681 32.5473 94.5155V95.7897H34.7631V90.6928ZM26.5278 90.6928C26.5278 88.8866 27.6849 87.4021 29.5929 87.4021C31.3902 87.4021 32.6581 88.7876 32.6581 90.6928C32.6581 92.499 31.3902 93.9835 29.5929 93.9835C27.6849 93.8722 26.5278 92.4866 26.5278 90.6928Z" fill="white"/>
<path d="M78.0934 8.17732H44.8076V68.2763H78.0934V8.17732Z" fill="#FF5A00"/>
<path d="M47.0236 38.2268C47.0236 26.0165 52.7354 15.1794 61.5 8.17732C55.0496 3.08041 46.9128 0 38.0374 0C17.0122 0 0 17.0969 0 38.2268C0 59.3567 17.0122 76.4536 38.0374 76.4536C46.9128 76.4536 55.0496 73.3732 61.5 68.2763C52.7231 61.3732 47.0236 50.4371 47.0236 38.2268Z" fill="#EB001B"/>
<path d="M123 38.2268C123 59.3567 105.988 76.4536 84.9626 76.4536C76.0872 76.4536 67.9504 73.3732 61.5 68.2763C70.3754 61.2619 75.9764 50.4371 75.9764 38.2268C75.9764 26.0165 70.2646 15.1794 61.5 8.17732C67.9381 3.08041 76.0749 0 84.9503 0C105.988 0 123 17.2082 123 38.2268Z" fill="#F79E1B"/>
</g>
<defs>
<clipPath id="clip0_49_470">
<rect width="123" height="96" fill="white"/>
</clipPath>
</defs>
</svg>
