<svg width="109" height="95" viewBox="0 0 109 95" fill="none" xmlns="http://www.w3.org/2000/svg">
<g clip-path="url(#clip0_49_487)">
<path fill-rule="evenodd" clip-rule="evenodd" d="M19.9582 0.466523L0.0836617 42.2927C0.00803347 42.4482 -0.0159327 42.624 0.0152682 42.7942C0.046469 42.9643 0.1312 43.1201 0.25707 43.2386L53.9334 94.7716C54.0858 94.9181 54.2889 94.9998 54.5002 94.9998C54.7114 94.9998 54.9145 94.9181 55.067 94.7716L108.743 43.2418C108.869 43.1233 108.954 42.9676 108.985 42.7974C109.016 42.6272 108.992 42.4514 108.917 42.2959L89.0421 0.469741C88.978 0.329271 88.8749 0.210275 88.745 0.126975C88.6152 0.0436751 88.4642 -0.000405614 88.31 1.22905e-06H20.6968C20.5419 -0.00192973 20.3897 0.0410892 20.2586 0.123869C20.1276 0.206648 20.0232 0.325651 19.9582 0.466523Z" fill="#50AF95"/>
<path fill-rule="evenodd" clip-rule="evenodd" d="M61.3967 46.5879C61.0113 46.6168 59.0203 46.7359 54.5791 46.7359C51.0467 46.7359 48.5387 46.6297 47.6589 46.5879C34.0078 45.9862 23.8184 43.6053 23.8184 40.7547C23.8184 37.9041 34.0078 35.5265 47.6589 34.9152V44.2166C48.5516 44.281 51.1078 44.4322 54.6402 44.4322C58.879 44.4322 61.0017 44.2553 61.3838 44.2199V34.9216C75.006 35.5297 85.1729 37.9106 85.1729 40.7547C85.1729 43.5989 75.0092 45.9798 61.3838 46.5846L61.3967 46.5879ZM61.3967 33.9596V25.6362H80.4073V12.9436H28.6482V25.6362H47.6556V33.9564C32.2062 34.6674 20.5879 37.7336 20.5879 41.4079C20.5879 45.0821 32.2062 48.1451 47.6556 48.8593V75.5315H61.3934V48.8497C76.8075 48.1387 88.4066 45.0757 88.4066 41.4046C88.4066 37.7336 76.8172 34.6706 61.3934 33.9564L61.3967 33.9596Z" fill="white"/>
</g>
<defs>
<clipPath id="clip0_49_487">
<rect width="109" height="95" fill="white"/>
</clipPath>
</defs>
</svg>
