<svg width="182" height="59" viewBox="0 0 182 59" fill="none" xmlns="http://www.w3.org/2000/svg">
<g clip-path="url(#clip0_49_457)">
<path d="M118.515 0.0908508C105.606 0.0908508 94.069 6.77177 94.069 19.1153C94.069 33.271 114.53 34.2487 114.53 41.3601C114.53 44.3544 111.093 47.0348 105.223 47.0348C96.8923 47.0348 90.6659 43.2895 90.6659 43.2895L88.0017 55.7455C88.0017 55.7455 95.1744 58.9091 104.697 58.9091C118.812 58.9091 129.918 51.9002 129.918 39.3456C129.918 24.3876 109.372 23.4389 109.372 16.8383C109.372 14.4927 112.193 11.9226 118.047 11.9226C124.651 11.9226 130.039 14.6465 130.039 14.6465L132.646 2.61609C132.646 2.61609 126.784 0.0908508 118.515 0.0908508ZM0.403418 0.998805L0.0908203 2.81471C0.0908203 2.81471 5.52199 3.80715 10.4136 5.78683C16.712 8.05695 17.1607 9.37849 18.2215 13.4831L29.7805 57.9728H45.2753L69.1464 0.998805H53.6871L38.3485 39.7357L32.0894 6.90049C31.5154 3.14253 28.6079 0.998805 25.0489 0.998805H0.403418ZM75.3628 0.998805L63.2355 57.9728H77.9773L90.062 0.998805H75.3628ZM157.583 0.998805C154.028 0.998805 152.145 2.89899 150.763 6.21953L129.165 57.9728H144.624L147.615 49.3473H166.449L168.268 57.9728H181.909L170.009 0.998805H157.583ZM159.594 16.3914L164.176 37.7709H151.899L159.594 16.3914Z" fill="white"/>
</g>
<defs>
<clipPath id="clip0_49_457">
<rect width="182" height="59" fill="white"/>
</clipPath>
</defs>
</svg>
