<svg width="250" height="240" viewBox="0 0 250 240" fill="none" xmlns="http://www.w3.org/2000/svg">
<path d="M220.219 170.265C212.5 184.943 194.866 192.747 172.413 193.365C149.978 193.983 122.851 187.414 96.3662 173.484C69.8812 159.555 49.0966 140.926 36.8929 122.091C24.6794 103.241 21.1175 84.2885 28.8368 69.6113C36.556 54.934 54.1901 47.1295 76.6427 46.5113C99.0772 45.8936 126.204 52.463 152.689 66.3923C179.174 80.3217 199.959 98.9507 212.163 117.786C224.376 136.636 227.938 155.588 220.219 170.265Z" stroke="white"/>
<path d="M48.0767 196.39C36.3505 184.663 34.1292 165.508 40.2002 143.883C46.2663 122.275 60.5881 98.3183 81.748 77.1584C102.908 55.9984 126.865 41.6766 148.472 35.6105C170.097 29.5395 189.253 31.7608 200.979 43.4871C212.705 55.2133 214.927 74.3689 208.856 95.994C202.79 117.602 188.468 141.558 167.308 162.718C146.148 183.878 122.191 198.2 100.584 204.266C78.9585 210.337 59.803 208.116 48.0767 196.39Z" stroke="white"/>
</svg>
