<svg width="240" height="225" viewBox="0 0 240 225" fill="none" xmlns="http://www.w3.org/2000/svg">
<path d="M126.665 220.092C110.113 221.116 94.2865 210.099 82.0991 191.232C69.9216 172.38 61.4494 145.785 59.6005 115.918C57.7516 86.0502 62.8792 58.6139 72.6387 38.4041C82.4061 18.1778 96.7532 5.29248 113.305 4.26789C129.857 3.24329 145.683 14.2608 157.871 33.128C170.048 51.9799 178.52 78.5743 180.369 108.442C182.218 138.309 177.091 165.746 167.331 185.955C157.564 206.182 143.217 219.067 126.665 220.092Z" stroke="white"/>
<path d="M14.9499 86.5431C18.8821 70.4326 34.0991 58.5873 55.7326 52.5462C77.3486 46.5101 105.259 46.3095 134.33 53.4051C163.402 60.5008 188.081 73.5374 204.486 88.8535C220.903 104.182 228.952 121.706 225.02 137.816C221.088 153.927 205.871 165.772 184.237 171.813C162.621 177.849 134.711 178.05 105.639 170.954C76.5681 163.859 51.8884 150.822 35.484 135.506C19.0663 120.178 11.0177 102.654 14.9499 86.5431Z" stroke="white"/>
</svg>
