<svg width="94" height="111" viewBox="0 0 94 111" fill="none" xmlns="http://www.w3.org/2000/svg">
<path d="M93.5 26.5921C93.5 33.6759 88.4202 40.1894 79.9878 44.9604C71.5705 49.7228 59.9086 52.6842 47 52.6842C34.0914 52.6842 22.4295 49.7228 14.0122 44.9604C5.57983 40.1894 0.5 33.6759 0.5 26.5921C0.5 19.5083 5.57983 12.9948 14.0122 8.22382C22.4295 3.46142 34.0914 0.5 47 0.5C59.9086 0.5 71.5705 3.46142 79.9878 8.22382C88.4202 12.9948 93.5 19.5083 93.5 26.5921Z" stroke="white"/>
<path d="M93.5 55.0395C93.5 62.1233 88.4202 68.6368 79.9878 73.4078C71.5705 78.1702 59.9086 81.1316 47 81.1316C34.0914 81.1316 22.4295 78.1702 14.0122 73.4078C5.57983 68.6368 0.5 62.1233 0.5 55.0395C0.5 47.9557 5.57983 41.4422 14.0122 36.6712C22.4295 31.9088 34.0914 28.9474 47 28.9474C59.9086 28.9474 71.5705 31.9088 79.9878 36.6712C88.4202 41.4422 93.5 47.9557 93.5 55.0395Z" stroke="white"/>
<path d="M93.5 83.4869C93.5 90.5707 88.4202 97.0842 79.9878 101.855C71.5705 106.618 59.9086 109.579 47 109.579C34.0914 109.579 22.4295 106.618 14.0122 101.855C5.57983 97.0842 0.5 90.5707 0.5 83.4869C0.5 76.4031 5.57983 69.8895 14.0122 65.1186C22.4295 60.3562 34.0914 57.3948 47 57.3948C59.9086 57.3948 71.5705 60.3562 79.9878 65.1186C88.4202 69.8895 93.5 76.4031 93.5 83.4869Z" stroke="white"/>
</svg>
