<svg width="111" height="94" viewBox="0 0 111 94" fill="none" xmlns="http://www.w3.org/2000/svg">
<path d="M26.5921 0.499999C33.6759 0.499999 40.1894 5.57982 44.9604 14.0122C49.7228 22.4295 52.6842 34.0914 52.6842 47C52.6842 59.9086 49.7228 71.5705 44.9604 79.9878C40.1894 88.4202 33.6759 93.5 26.5921 93.5C19.5083 93.5 12.9948 88.4202 8.22382 79.9878C3.46142 71.5705 0.499999 59.9086 0.499998 47C0.499997 34.0914 3.46141 22.4295 8.22382 14.0122C12.9948 5.57983 19.5083 0.499999 26.5921 0.499999Z" stroke="white"/>
<path d="M55.0394 0.499999C62.1232 0.499999 68.6367 5.57982 73.4077 14.0122C78.1701 22.4295 81.1315 34.0914 81.1315 47C81.1315 59.9086 78.1701 71.5705 73.4077 79.9878C68.6367 88.4202 62.1232 93.5 55.0394 93.5C47.9555 93.5 41.442 88.4202 36.6711 79.9878C31.9087 71.5705 28.9473 59.9086 28.9473 47C28.9473 34.0914 31.9087 22.4295 36.6711 14.0122C41.442 5.57983 47.9555 0.499999 55.0394 0.499999Z" stroke="white"/>
<path d="M83.4869 0.499999C90.5707 0.499999 97.0842 5.57982 101.855 14.0122C106.618 22.4295 109.579 34.0914 109.579 47C109.579 59.9086 106.618 71.5705 101.855 79.9878C97.0842 88.4202 90.5707 93.5 83.4869 93.5C76.4031 93.5 69.8895 88.4202 65.1186 79.9878C60.3562 71.5705 57.3948 59.9086 57.3948 47C57.3948 34.0914 60.3562 22.4295 65.1186 14.0122C69.8895 5.57983 76.403 0.499999 83.4869 0.499999Z" stroke="white"/>
</svg>
