<svg width="192" height="74" viewBox="0 0 192 74" fill="none" xmlns="http://www.w3.org/2000/svg">
<path d="M84.26 36C84.1667 36 84.0933 35.9733 84.04 35.92C83.9867 35.8533 83.96 35.78 83.96 35.7V26.64C83.96 26.56 83.9333 26.4933 83.88 26.44C83.8267 26.3867 83.76 26.36 83.68 26.36H78.78C78.7133 26.36 78.6467 26.3267 78.58 26.26C78.5267 26.18 78.5 26.1067 78.5 26.04V22.3C78.5 22.2333 78.5267 22.16 78.58 22.08C78.6333 22.0267 78.7 22 78.78 22H93.86C93.94 22 94.0067 22.0267 94.06 22.08C94.1133 22.16 94.14 22.2333 94.14 22.3V26.04C94.14 26.1067 94.1133 26.18 94.06 26.26C93.9933 26.3267 93.9267 26.36 93.86 26.36H88.96C88.8933 26.36 88.8267 26.3867 88.76 26.44C88.7067 26.4933 88.68 26.56 88.68 26.64V35.7C88.68 35.78 88.6533 35.8533 88.6 35.92C88.5467 35.9733 88.4733 36 88.38 36H84.26Z" fill="white"/>
<path d="M95.4806 36C95.3873 36 95.3073 35.9667 95.2406 35.9C95.174 35.8333 95.1406 35.7533 95.1406 35.66V22.36C95.1406 22.2667 95.174 22.1867 95.2406 22.12C95.3073 22.0533 95.3873 22.02 95.4806 22.02H106.521C107.374 22.02 108.161 22.2067 108.881 22.58C109.614 22.94 110.201 23.48 110.641 24.2C111.081 24.92 111.301 25.7867 111.301 26.8C111.301 27.72 111.074 28.5533 110.621 29.3C110.167 30.0467 109.567 30.62 108.821 31.02C109.701 32.7933 110.427 34.36 111.001 35.72L111.021 35.78C111.021 35.8333 111.001 35.88 110.961 35.92C110.921 35.96 110.874 35.98 110.821 35.98H106.181C106.047 35.98 105.961 35.9267 105.921 35.82L103.981 31.8C103.941 31.6933 103.854 31.64 103.721 31.64H100.221C100.101 31.64 100.007 31.7 99.9406 31.82C99.914 31.8467 99.9006 31.9 99.9006 31.98V35.66C99.9006 35.7133 99.8873 35.7667 99.8606 35.82C99.8073 35.94 99.7073 36 99.5606 36H95.4806ZM105.761 27.46C105.961 27.46 106.114 27.4133 106.221 27.32C106.341 27.2133 106.401 27.08 106.401 26.92C106.401 26.7733 106.347 26.6533 106.241 26.56C106.134 26.4533 105.974 26.4 105.761 26.4H100.321C100.267 26.4 100.207 26.42 100.141 26.46C100.101 26.5 100.081 26.5467 100.081 26.6V27.28C100.081 27.3333 100.101 27.38 100.141 27.42C100.194 27.46 100.254 27.48 100.321 27.48L105.761 27.46Z" fill="white"/>
<path d="M112.574 36C112.414 36 112.287 35.94 112.194 35.82C112.114 35.7 112.087 35.56 112.114 35.4L115.614 22.34C115.64 22.2333 115.694 22.1533 115.774 22.1C115.867 22.0333 115.967 22 116.074 22H123.714C123.82 22 123.92 22.0333 124.014 22.1C124.107 22.1667 124.16 22.2467 124.174 22.34L127.674 35.4C127.714 35.56 127.687 35.7 127.594 35.82C127.5 35.94 127.374 36 127.214 36H123.194C123.087 36 122.987 35.9733 122.894 35.92C122.814 35.8533 122.76 35.7667 122.734 35.66L122.454 34.58C122.44 34.5267 122.407 34.48 122.354 34.44C122.3 34.4 122.24 34.38 122.174 34.38H117.614C117.547 34.38 117.487 34.4 117.434 34.44C117.38 34.48 117.347 34.5267 117.334 34.58C117.307 34.7 117.28 34.8 117.254 34.88C117.227 34.96 117.207 35.0333 117.194 35.1C117.1 35.4467 117.047 35.68 117.034 35.8C116.994 35.9333 116.9 36 116.754 36H112.574ZM120.874 30.04C120.967 30.04 121.04 30.0067 121.094 29.94C121.147 29.86 121.16 29.7667 121.134 29.66L120.274 26.48C120.26 26.4 120.207 26.36 120.114 26.36H119.674C119.594 26.36 119.54 26.4 119.514 26.48L118.654 29.66V29.74C118.654 29.82 118.674 29.8933 118.714 29.96C118.767 30.0133 118.834 30.04 118.914 30.04H120.874Z" fill="white"/>
<path d="M128.995 36C128.915 36 128.842 35.9733 128.775 35.92C128.722 35.8667 128.695 35.8 128.695 35.72V22.32C128.695 22.2267 128.722 22.1533 128.775 22.1C128.829 22.0333 128.895 22 128.975 22H143.355C143.435 22 143.502 22.0333 143.555 22.1C143.609 22.1533 143.635 22.2267 143.635 22.32V26.02C143.635 26.1133 143.609 26.1933 143.555 26.26C143.502 26.3133 143.435 26.34 143.355 26.34H133.695C133.615 26.34 133.549 26.3667 133.495 26.42C133.442 26.4733 133.415 26.54 133.415 26.62V27.16C133.415 27.24 133.442 27.3067 133.495 27.36C133.549 27.4133 133.615 27.44 133.695 27.44H143.355C143.435 27.44 143.502 27.4733 143.555 27.54C143.609 27.5933 143.635 27.66 143.635 27.74V31.34C143.635 31.42 143.609 31.4933 143.555 31.56C143.502 31.6133 143.435 31.64 143.355 31.64H133.695C133.615 31.64 133.549 31.6667 133.495 31.72C133.442 31.7733 133.415 31.84 133.415 31.92V35.72C133.415 35.8 133.382 35.8667 133.315 35.92C133.262 35.9733 133.195 36 133.115 36H128.995Z" fill="white"/>
<path d="M144.933 36C144.853 36 144.779 35.9733 144.713 35.92C144.659 35.8667 144.633 35.8 144.633 35.72V22.32C144.633 22.2267 144.659 22.1533 144.713 22.1C144.766 22.0333 144.833 22 144.913 22H159.293C159.373 22 159.439 22.0333 159.493 22.1C159.546 22.1533 159.573 22.2267 159.573 22.32V26.02C159.573 26.1133 159.546 26.1933 159.493 26.26C159.439 26.3133 159.373 26.34 159.293 26.34H149.633C149.553 26.34 149.486 26.3667 149.433 26.42C149.379 26.4733 149.353 26.54 149.353 26.62V27.16C149.353 27.24 149.379 27.3067 149.433 27.36C149.486 27.4133 149.553 27.44 149.633 27.44H159.293C159.373 27.44 159.439 27.4733 159.493 27.54C159.546 27.5933 159.573 27.66 159.573 27.74V31.34C159.573 31.42 159.546 31.4933 159.493 31.56C159.439 31.6133 159.373 31.64 159.293 31.64H149.633C149.553 31.64 149.486 31.6667 149.433 31.72C149.379 31.7733 149.353 31.84 149.353 31.92V35.72C149.353 35.8 149.319 35.8667 149.253 35.92C149.199 35.9733 149.133 36 149.053 36H144.933Z" fill="white"/>
<path d="M160.83 36C160.75 36 160.69 35.9667 160.65 35.9C160.597 35.8467 160.57 35.7733 160.57 35.68V31.96C160.57 31.8667 160.597 31.7933 160.65 31.74C160.69 31.6733 160.75 31.64 160.83 31.64H165.33C165.424 31.64 165.497 31.6133 165.55 31.56C165.604 31.5067 165.63 31.44 165.63 31.36V26.64C165.63 26.56 165.604 26.4933 165.55 26.44C165.497 26.3867 165.424 26.36 165.33 26.36H160.83C160.75 26.36 160.69 26.3333 160.65 26.28C160.597 26.2267 160.57 26.1533 160.57 26.06V22.32C160.57 22.2267 160.597 22.1533 160.65 22.1C160.69 22.0333 160.75 22 160.83 22H175.15C175.217 22 175.284 22.0333 175.35 22.1C175.404 22.18 175.43 22.2533 175.43 22.32V26.06C175.43 26.1267 175.404 26.2 175.35 26.28C175.297 26.3333 175.23 26.36 175.15 26.36H170.65C170.584 26.36 170.517 26.3933 170.45 26.46C170.397 26.5133 170.37 26.5733 170.37 26.64V31.36C170.37 31.44 170.397 31.5067 170.45 31.56C170.517 31.6133 170.584 31.64 170.65 31.64H175.15C175.217 31.64 175.284 31.6733 175.35 31.74C175.404 31.82 175.43 31.8933 175.43 31.96V35.68C175.43 35.7467 175.404 35.82 175.35 35.9C175.284 35.9667 175.217 36 175.15 36H160.83Z" fill="white"/>
<path d="M180.35 36C179.643 36 178.99 35.82 178.39 35.46C177.79 35.0867 177.31 34.5933 176.95 33.98C176.603 33.3533 176.43 32.6733 176.43 31.94V26.06C176.43 25.3267 176.603 24.6533 176.95 24.04C177.31 23.4133 177.79 22.92 178.39 22.56C178.99 22.1867 179.643 22 180.35 22H191.13C191.236 22 191.323 22.04 191.39 22.12C191.47 22.1867 191.51 22.2733 191.51 22.38V26C191.51 26.1067 191.47 26.2 191.39 26.28C191.323 26.3467 191.236 26.38 191.13 26.38H181.55C181.443 26.38 181.35 26.42 181.27 26.5C181.203 26.5667 181.17 26.6533 181.17 26.76V31.14C181.17 31.2467 181.203 31.34 181.27 31.42C181.35 31.4867 181.443 31.52 181.55 31.52H191.13C191.236 31.52 191.323 31.56 191.39 31.64C191.47 31.7067 191.51 31.7933 191.51 31.9V35.62C191.51 35.7267 191.47 35.82 191.39 35.9C191.323 35.9667 191.236 36 191.13 36H180.35Z" fill="white"/>
<path d="M79.22 60C79.06 60 78.94 59.9267 78.86 59.78C78.8333 59.74 78.82 59.6733 78.82 59.58V56.38C78.82 56.26 78.86 56.1533 78.94 56.06C79.0333 55.9667 79.1467 55.92 79.28 55.92H89.38C89.5933 55.92 89.7533 55.8733 89.86 55.78C89.9667 55.6867 90.02 55.5667 90.02 55.42C90.02 55.2733 89.96 55.1533 89.84 55.06C89.7333 54.9533 89.58 54.9 89.38 54.9L83.3 54.86C82.4333 54.8467 81.6333 54.6733 80.9 54.34C80.18 54.0067 79.6 53.5 79.16 52.82C78.72 52.14 78.5 51.32 78.5 50.36C78.5 48.88 78.9533 47.7867 79.86 47.08C80.7667 46.36 81.9133 46 83.3 46H94.32C94.4 46 94.4667 46.0333 94.52 46.1C94.5733 46.1667 94.6 46.2467 94.6 46.34V49.82C94.6 49.9133 94.5733 49.9933 94.52 50.06C94.4667 50.1267 94.4 50.16 94.32 50.16H84.06C83.8467 50.16 83.6867 50.2067 83.58 50.3C83.4733 50.3933 83.42 50.5133 83.42 50.66C83.42 50.8067 83.4733 50.9333 83.58 51.04C83.7 51.1333 83.86 51.18 84.06 51.18L90.42 51.2C91.7533 51.2 92.84 51.58 93.68 52.34C94.52 53.0867 94.94 54.18 94.94 55.62C94.94 56.4467 94.74 57.1933 94.34 57.86C93.9533 58.5267 93.4133 59.0533 92.72 59.44C92.04 59.8133 91.2733 60 90.42 60H79.22Z" fill="white"/>
<path d="M106.801 46.28C106.801 46.2 106.828 46.1333 106.881 46.08C106.948 46.0267 107.015 46 107.081 46H111.261C111.341 46 111.408 46.0267 111.461 46.08C111.515 46.1333 111.541 46.2 111.541 46.28V59.7C111.541 59.78 111.515 59.8533 111.461 59.92C111.408 59.9733 111.335 60 111.241 60H107.101C107.021 60 106.948 59.9733 106.881 59.92C106.828 59.8533 106.801 59.78 106.801 59.7V55.64C106.801 55.5733 106.775 55.5133 106.721 55.46C106.668 55.3933 106.601 55.36 106.521 55.36H100.961C100.895 55.36 100.828 55.3933 100.761 55.46C100.708 55.5133 100.681 55.5733 100.681 55.64V59.7C100.681 59.78 100.655 59.8533 100.601 59.92C100.548 59.9733 100.475 60 100.381 60H96.2414C96.1614 60 96.0881 59.9733 96.0214 59.92C95.9681 59.8533 95.9414 59.78 95.9414 59.7V46.28C95.9414 46.2 95.9681 46.1333 96.0214 46.08C96.0881 46.0267 96.1547 46 96.2214 46H100.421C100.488 46 100.548 46.0267 100.601 46.08C100.655 46.1333 100.681 46.2 100.681 46.28V50.34C100.681 50.42 100.708 50.4867 100.761 50.54C100.828 50.5933 100.895 50.62 100.961 50.62H106.521C106.601 50.62 106.668 50.5933 106.721 50.54C106.775 50.4867 106.801 50.42 106.801 50.34V46.28Z" fill="white"/>
<path d="M113.023 60C112.863 60 112.736 59.94 112.643 59.82C112.563 59.7 112.536 59.56 112.563 59.4L116.063 46.34C116.09 46.2333 116.143 46.1533 116.223 46.1C116.316 46.0333 116.416 46 116.523 46H124.163C124.27 46 124.37 46.0333 124.463 46.1C124.556 46.1667 124.61 46.2467 124.623 46.34L128.123 59.4C128.163 59.56 128.136 59.7 128.043 59.82C127.95 59.94 127.823 60 127.663 60H123.643C123.536 60 123.436 59.9733 123.343 59.92C123.263 59.8533 123.21 59.7667 123.183 59.66L122.903 58.58C122.89 58.5267 122.856 58.48 122.803 58.44C122.75 58.4 122.69 58.38 122.623 58.38H118.063C117.996 58.38 117.936 58.4 117.883 58.44C117.83 58.48 117.796 58.5267 117.783 58.58C117.756 58.7 117.73 58.8 117.703 58.88C117.676 58.96 117.656 59.0333 117.643 59.1C117.55 59.4467 117.496 59.68 117.483 59.8C117.443 59.9333 117.35 60 117.203 60H113.023ZM121.323 54.04C121.416 54.04 121.49 54.0067 121.543 53.94C121.596 53.86 121.61 53.7667 121.583 53.66L120.723 50.48C120.71 50.4 120.656 50.36 120.563 50.36H120.123C120.043 50.36 119.99 50.4 119.963 50.48L119.103 53.66V53.74C119.103 53.82 119.123 53.8933 119.163 53.96C119.216 54.0133 119.283 54.04 119.363 54.04H121.323Z" fill="white"/>
<path d="M129.485 60C129.391 60 129.311 59.9667 129.245 59.9C129.178 59.8333 129.145 59.7533 129.145 59.66V46.36C129.145 46.2667 129.178 46.1867 129.245 46.12C129.311 46.0533 129.391 46.02 129.485 46.02H140.525C141.378 46.02 142.165 46.2067 142.885 46.58C143.618 46.94 144.205 47.48 144.645 48.2C145.085 48.92 145.305 49.7867 145.305 50.8C145.305 51.72 145.078 52.5533 144.625 53.3C144.171 54.0467 143.571 54.62 142.825 55.02C143.705 56.7933 144.431 58.36 145.005 59.72L145.025 59.78C145.025 59.8333 145.005 59.88 144.965 59.92C144.925 59.96 144.878 59.98 144.825 59.98H140.185C140.051 59.98 139.965 59.9267 139.925 59.82L137.985 55.8C137.945 55.6933 137.858 55.64 137.725 55.64H134.225C134.105 55.64 134.011 55.7 133.945 55.82C133.918 55.8467 133.905 55.9 133.905 55.98V59.66C133.905 59.7133 133.891 59.7667 133.865 59.82C133.811 59.94 133.711 60 133.565 60H129.485ZM139.765 51.46C139.965 51.46 140.118 51.4133 140.225 51.32C140.345 51.2133 140.405 51.08 140.405 50.92C140.405 50.7733 140.351 50.6533 140.245 50.56C140.138 50.4533 139.978 50.4 139.765 50.4H134.325C134.271 50.4 134.211 50.42 134.145 50.46C134.105 50.5 134.085 50.5467 134.085 50.6V51.28C134.085 51.3333 134.105 51.38 134.145 51.42C134.198 51.46 134.258 51.48 134.325 51.48L139.765 51.46Z" fill="white"/>
<path d="M162.058 46.24L156.558 52.78C156.504 52.8333 156.478 52.9067 156.478 53C156.478 53.0933 156.504 53.1667 156.558 53.22L162.058 59.76C162.098 59.8 162.104 59.8533 162.078 59.92C162.051 59.9733 162.004 60 161.938 60H157.018C156.684 60 156.411 59.8733 156.198 59.62L152.738 55.52C152.631 55.3867 152.491 55.32 152.318 55.32H151.118C151.064 55.32 150.998 55.3467 150.918 55.4C150.864 55.48 150.838 55.5467 150.838 55.6V59.72C150.838 59.8 150.811 59.8667 150.758 59.92C150.704 59.9733 150.638 60 150.558 60H146.378C146.298 60 146.231 59.9733 146.178 59.92C146.124 59.84 146.098 59.7733 146.098 59.72V46.28C146.098 46.2 146.124 46.1333 146.178 46.08C146.231 46.0267 146.298 46 146.378 46H150.558C150.638 46 150.704 46.0267 150.758 46.08C150.811 46.1333 150.838 46.2 150.838 46.28V50.48C150.838 50.5333 150.864 50.6 150.918 50.68C150.998 50.7333 151.064 50.76 151.118 50.76H152.238C152.424 50.76 152.571 50.6933 152.678 50.56L156.198 46.38C156.411 46.1267 156.684 46 157.018 46H161.938C162.004 46 162.051 46.0267 162.078 46.08C162.104 46.1467 162.098 46.2 162.058 46.24Z" fill="white"/>
<path d="M163.81 60C163.65 60 163.53 59.9267 163.45 59.78C163.423 59.74 163.41 59.6733 163.41 59.58V56.38C163.41 56.26 163.45 56.1533 163.53 56.06C163.623 55.9667 163.737 55.92 163.87 55.92H173.97C174.183 55.92 174.343 55.8733 174.45 55.78C174.557 55.6867 174.61 55.5667 174.61 55.42C174.61 55.2733 174.55 55.1533 174.43 55.06C174.323 54.9533 174.17 54.9 173.97 54.9L167.89 54.86C167.023 54.8467 166.223 54.6733 165.49 54.34C164.77 54.0067 164.19 53.5 163.75 52.82C163.31 52.14 163.09 51.32 163.09 50.36C163.09 48.88 163.543 47.7867 164.45 47.08C165.357 46.36 166.503 46 167.89 46H178.91C178.99 46 179.057 46.0333 179.11 46.1C179.163 46.1667 179.19 46.2467 179.19 46.34V49.82C179.19 49.9133 179.163 49.9933 179.11 50.06C179.057 50.1267 178.99 50.16 178.91 50.16H168.65C168.437 50.16 168.277 50.2067 168.17 50.3C168.063 50.3933 168.01 50.5133 168.01 50.66C168.01 50.8067 168.063 50.9333 168.17 51.04C168.29 51.1333 168.45 51.18 168.65 51.18L175.01 51.2C176.343 51.2 177.43 51.58 178.27 52.34C179.11 53.0867 179.53 54.18 179.53 55.62C179.53 56.4467 179.33 57.1933 178.93 57.86C178.543 58.5267 178.003 59.0533 177.31 59.44C176.63 59.8133 175.863 60 175.01 60H163.81Z" fill="white"/>
<g clip-path="url(#clip0_16_891)">
<path d="M57.4141 60.729C69.3719 48.7554 69.3719 29.3422 57.4141 17.3686C45.4563 5.39493 26.0688 5.39493 14.111 17.3686C2.15319 29.3422 2.15319 48.7554 14.111 60.729C26.0688 72.7027 45.4562 72.7027 57.4141 60.729Z" fill="#39447D"/>
<path d="M50.092 47.3044L50.5965 45.8143L52.0846 45.284L50.5965 44.7788L50.0668 43.2635L49.5623 44.7788L48.0742 45.3092L49.5876 45.8396L50.092 47.3044Z" fill="white"/>
<path d="M54.0771 39.5761L57.2047 40.5106L58.4154 43.5413L59.3487 40.4095L62.3754 39.1973L59.2478 38.2628L58.0371 35.2068L57.0282 38.4143L54.0771 39.5761Z" fill="#2F76FF"/>
<path d="M37.3547 36.5959C37.3547 36.5959 42.7775 40.8894 43.4585 47.6075C43.4585 47.6075 34.3532 40.1823 30.1663 40.056C30.1663 40.0812 33.4452 34.3986 37.3547 36.5959Z" fill="#2F76FF"/>
<path d="M59.9795 23.7154C59.9795 23.7154 62.1234 20.9372 62.1486 20.1038C62.1738 19.2703 68.9335 15.6334 67.8741 12.5522C66.8148 9.47099 24.9706 -2.5256 10.064 21.2908C10.064 21.2908 -6.28017 43.1119 15.6382 63.3925C15.6382 63.3925 33.1931 76.0457 48.3267 67.5092L46.2584 64.0744C46.2584 64.0744 25.8029 62.2055 24.8697 53.3406C23.9364 44.4758 29.4602 35.3078 49.613 36.4191C49.613 36.4191 52.4127 36.6969 51.9083 33.3631C51.4038 30.0294 51.4543 28.0341 53.0181 27.4027C54.5314 26.7713 59.7777 25.256 59.9795 23.7154Z" fill="#2F76FF"/>
<path opacity="0.8" d="M25.1974 23.5133C41.3147 6.08669 67.7983 14.2191 67.7983 14.2191C66.7642 16.8457 62.1737 19.4218 62.1737 20.1038C62.1737 20.9372 60.0046 23.7154 60.0046 23.7154C59.8028 25.256 54.5565 26.7713 52.9927 27.428C51.4289 28.0594 51.3784 30.0546 51.8829 33.3884C52.3874 36.7222 49.5877 36.4444 49.5877 36.4444C36.2449 35.7119 29.3087 39.5003 26.4333 44.7031C23.1544 49.0218 22.5239 55.2601 26.5595 59.4526C31.7553 64.8826 39.5743 65.2614 46.6366 64.7311L48.3265 67.5345C33.2182 76.0457 15.6381 63.4178 15.6381 63.4178C15.0832 62.9126 14.5787 62.4075 14.0743 61.9024C3.96005 42.7584 25.1974 23.5133 25.1974 23.5133Z" fill="white"/>
<path d="M59.9795 23.7154C59.9795 23.7154 56.9023 16.0375 45.8296 16.1638C45.8296 16.1638 40.6338 16.4164 39.524 20.0532C38.4142 23.6901 41.9453 34.2724 49.5625 36.4444C49.5625 36.4444 52.6397 37.0505 51.8578 33.3884C51.8578 33.3884 51.2525 29.2969 52.1857 28.4887C53.1694 27.6553 60.4082 26.9229 59.9795 23.7154Z" fill="#0F3F9A"/>
<path d="M45.2242 32.8075C46.6367 33.5652 48.604 34.828 50.0922 34.0956C50.7984 33.742 51.3785 32.4287 51.7569 31.7973C51.7569 33.0853 51.8578 33.3884 51.8578 33.3884C52.6397 37.0758 49.5625 36.4444 49.5625 36.4444C45.2494 35.2068 42.248 31.2669 40.6589 27.428C41.9453 29.2464 43.2064 31.7215 45.2242 32.8075Z" fill="white"/>
<path d="M50.5713 18.2096C48.276 17.7044 45.779 17.6539 43.509 18.2348C42.2983 18.5379 41.012 18.9167 39.8013 19.4471C41.2642 16.3911 45.8547 16.1638 45.8547 16.1638C56.9022 16.0628 60.0045 23.7154 60.0045 23.7154C60.055 24.0689 60.0045 24.3973 59.8784 24.7003C58.1128 21.215 54.4556 19.043 50.5713 18.2096Z" fill="white"/>
<path d="M19.018 25.256C19.018 25.256 -0.151176 30.1304 0.00015895 42.228C0.00015895 42.228 6.33102 35.4089 13.7212 35.3836C13.7212 35.3836 23.7094 26.5945 19.018 25.256Z" fill="#2F76FF"/>
<path d="M46.0061 64.1754C46.0061 64.1754 46.6871 51.8505 54.3043 50.0068L55.9186 49.7038C55.9186 49.7038 52.11 54.5782 52.5135 57.9877C52.8919 61.3973 52.337 64.9078 50.5209 65.8423C50.5209 65.8423 53.4972 67.1809 54.1278 70.4136C54.7583 73.6464 59.7272 73.3686 59.7272 73.3686C59.7272 73.3686 52.9423 76.1468 47.5447 70.0601L46.0313 68.7973L46.0061 64.1754Z" fill="#2F76FF"/>
<path opacity="0.44" d="M46.889 63.544C47.9988 58.8464 50.748 55.058 54.3296 52.0526C53.3459 53.77 52.2866 56.0935 52.4884 57.9624C52.8667 61.372 52.3118 64.8826 50.4958 65.8171C50.4958 65.8171 53.4721 67.1556 54.1026 70.3884C54.7332 73.6212 59.702 73.3433 59.702 73.3433C59.702 73.3433 52.9172 76.1215 47.5195 70.0348L46.0062 68.772L45.981 64.529C46.435 64.428 46.7629 64.0744 46.889 63.544Z" fill="white"/>
<path d="M51.0255 10.4055C50.9751 10.8601 51.2777 11.2894 51.7317 11.3399C52.1857 11.3904 52.6145 11.0874 52.665 10.6328C52.7154 10.1782 52.4127 9.74881 51.9587 9.6983C51.5047 9.64779 51.0759 9.95086 51.0255 10.4055Z" fill="white"/>
<path d="M30.015 15.1031C29.334 15.7345 28.7539 16.4922 28.2747 17.2751C27.7702 18.0833 27.3919 18.942 27.1144 19.8512C26.9631 20.3058 26.8622 20.7604 26.7613 21.215L26.6604 21.9222C26.6352 22.0485 26.6352 22.1495 26.61 22.2758L26.5847 22.6294C26.5091 23.5638 26.6352 24.5236 26.8622 25.4075C26.8622 24.473 26.837 23.5638 26.9883 22.6546C27.0387 22.2 27.1396 21.7454 27.2153 21.316C27.3414 20.8867 27.4171 20.4321 27.5684 20.0027C27.8459 19.144 28.1738 18.2853 28.6025 17.4771C29.0061 16.6689 29.4853 15.8608 30.015 15.1031Z" fill="white"/>
<path d="M27.1397 15.3556C26.6353 16.0628 26.2317 16.8205 25.8786 17.6034C25.6768 17.9822 25.5255 18.3863 25.3741 18.7904C25.2228 19.1945 25.0715 19.5986 24.9454 20.028C24.6931 20.8614 24.4913 21.6949 24.4409 22.5788C24.3652 23.4375 24.4157 24.3467 24.6931 25.1549C24.6175 24.2962 24.6931 23.4628 24.8192 22.6293C24.9454 21.7959 25.1724 20.9877 25.4246 20.1795C25.6516 19.3713 25.9543 18.5631 26.2317 17.7802C26.5344 16.9467 26.837 16.1638 27.1397 15.3556Z" fill="white"/>
<path d="M24.7182 16.1891C24.239 16.8205 23.8606 17.5024 23.5327 18.2095C23.2048 18.9167 22.9274 19.6491 22.7256 20.4321C22.549 21.1898 22.3977 21.9727 22.3977 22.7809C22.3977 23.5638 22.4986 24.372 22.8013 25.1044C22.7004 24.3215 22.7004 23.5638 22.776 22.8061C22.8013 22.6293 22.8265 22.4273 22.8517 22.2505C22.8769 22.0737 22.9274 21.8717 22.9526 21.6949C22.9778 21.5181 23.0283 21.316 23.0787 21.1392C23.1292 20.9625 23.1544 20.7604 23.2048 20.5836L23.3562 20.028L23.5327 19.4723C23.6336 19.0935 23.7597 18.7399 23.8858 18.3863C24.1633 17.6287 24.4155 16.9215 24.7182 16.1891Z" fill="white"/>
<path d="M53.2449 10.8853C53.144 10.5065 52.9674 10.1782 52.7404 9.84983C52.5134 9.54676 52.2612 9.24369 51.9838 8.99113C51.6811 8.73857 51.3532 8.53652 50.9749 8.41024C50.5965 8.28396 50.193 8.23345 49.8398 8.30922C50.193 8.4355 50.5209 8.58704 50.8235 8.76383C51.1262 8.94062 51.4036 9.16792 51.6559 9.36997C52.2108 9.84983 52.69 10.355 53.2449 10.8853Z" fill="white"/>
<path d="M59.7272 24.1952C59.7272 24.1952 58.794 24.8014 58.1382 25.0287L58.9201 23.0334C58.9201 23.0334 59.9038 23.4881 59.7272 24.1952Z" fill="white"/>
<path d="M58.6427 22.6799C58.6427 22.6799 57.8356 23.4375 57.2302 23.7911L57.659 21.6949C57.659 21.6696 58.7184 21.9474 58.6427 22.6799Z" fill="white"/>
<path d="M57.2301 21.4423C57.2301 21.4423 56.423 22.2 55.8176 22.5536L56.2464 20.4573C56.2464 20.4321 57.3058 20.6846 57.2301 21.4423Z" fill="white"/>
<path d="M55.6662 20.2553C55.6662 20.2553 55.0105 21.1393 54.4556 21.5686L54.5312 19.4218C54.5312 19.4471 55.6158 19.5229 55.6662 20.2553Z" fill="white"/>
<path d="M53.7746 19.2703C53.7746 19.2703 53.2701 20.2553 52.8161 20.7857L52.5134 18.6642C52.5134 18.6642 53.598 18.5631 53.7746 19.2703Z" fill="white"/>
<path d="M51.6056 18.5884C51.6056 18.5884 51.2525 19.6491 50.8741 20.23L50.2688 18.159C50.2688 18.159 51.3281 17.9065 51.6056 18.5884Z" fill="white"/>
<path d="M49.0832 18.0328C49.0832 18.0328 48.9066 19.1188 48.6292 19.7754L47.7212 17.8307C47.6959 17.8055 48.7048 17.4014 49.0832 18.0328Z" fill="white"/>
<path d="M46.6368 17.755C46.6368 17.755 46.5863 18.8662 46.4098 19.5229L45.2495 17.7044C45.2243 17.7044 46.1827 17.1741 46.6368 17.755Z" fill="white"/>
<path d="M43.8621 18.0075C43.8621 18.0075 43.8117 19.1188 43.6351 19.7754L42.4749 17.957C42.4749 17.9823 43.4081 17.4266 43.8621 18.0075Z" fill="white"/>
<path d="M51.1767 33.5147C51.1767 33.5147 50.6975 32.7822 50.3192 32.4287L50.2939 34.1966C50.2939 34.1713 51.1263 34.1208 51.1767 33.5147Z" fill="white"/>
<path d="M49.2598 34.1461C49.2598 34.1461 49.3103 33.0348 49.1589 32.3529L47.8726 34.0703C47.8474 34.0703 48.7554 34.6765 49.2598 34.1461Z" fill="white"/>
<path d="M46.8133 33.5399C46.8133 33.5399 47.2168 32.5044 47.2925 31.7973L45.5017 33.0096C45.5269 33.0096 46.1827 33.8935 46.8133 33.5399Z" fill="white"/>
<path d="M44.745 32.2771C44.745 32.2771 45.3504 31.3427 45.5522 30.686L43.5596 31.5195C43.5848 31.4942 44.0388 32.4792 44.745 32.2771Z" fill="white"/>
<path d="M43.0045 30.4335C43.0045 30.4335 43.8621 29.7263 44.2909 29.1707L42.147 29.3222C42.147 29.3222 42.2731 30.4082 43.0045 30.4335Z" fill="white"/>
<path d="M41.466 28.2362C41.466 28.2362 42.4245 27.6806 42.9289 27.1754L40.785 26.9986C40.785 27.0239 40.7598 28.1099 41.466 28.2362Z" fill="white"/>
<path d="M62.1485 20.1037C61.644 19.245 61.0135 18.4621 60.3072 17.7802C59.601 17.073 58.7939 16.4669 57.9615 15.9365C57.5328 15.6587 57.0788 15.4566 56.65 15.2293C56.196 15.0526 55.742 14.8253 55.2627 14.699C54.3295 14.3706 53.3206 14.2191 52.3369 14.1686C53.2954 14.4212 54.2286 14.6737 55.1114 15.0526C55.5654 15.2293 55.9942 15.4566 56.423 15.6587C56.8517 15.886 57.2805 16.1133 57.6841 16.3659C58.5164 16.871 59.2983 17.4266 60.0298 18.058C60.7865 18.6894 61.4927 19.3713 62.1485 20.1037Z" fill="white"/>
<path d="M17.8577 25.9379C17.4541 25.4328 16.8235 25.1297 16.193 24.9782C15.5372 24.8266 14.8814 24.8771 14.2256 25.0034C12.9393 25.256 11.7538 25.8621 10.6692 26.5945C9.58468 27.327 8.601 28.1352 7.69299 29.0444C6.78497 29.9536 5.92741 30.9133 5.14551 31.9235C6.07874 31.0396 7.01198 30.1809 7.94521 29.3474C8.90367 28.514 9.88735 27.7311 10.9215 27.0239C11.1737 26.8471 11.4511 26.6956 11.7034 26.5188C11.9808 26.3672 12.2583 26.2157 12.5357 26.0642C13.0906 25.7863 13.6707 25.559 14.2761 25.3823C14.8814 25.2307 15.4868 25.1549 16.1173 25.2307C16.7731 25.2812 17.3784 25.5085 17.8577 25.9379Z" fill="white"/>
<path d="M10.6189 37.3031C10.0136 37.2273 9.43347 37.2526 8.82813 37.2778C8.22278 37.3031 7.64267 37.3788 7.06255 37.4799C6.75988 37.5304 6.48243 37.6061 6.17976 37.6819C5.90231 37.7577 5.59964 37.8587 5.32219 37.9597C5.04474 38.0608 4.76729 38.187 4.48985 38.3638C4.23762 38.5154 3.9854 38.7174 3.80884 38.97C4.06106 38.7932 4.31329 38.6922 4.59074 38.5911C4.86819 38.4901 5.14563 38.4143 5.42308 38.3386C5.97798 38.2123 6.5581 38.086 7.13821 37.985C8.29845 37.7577 9.45869 37.5809 10.6189 37.3031Z" fill="white"/>
<path d="M29.1826 8.51126C29.1826 8.51126 23.0535 -0.631402 15.3606 0.0505089C15.3606 0.0505089 16.6469 13.714 15.4867 16.3154C14.3012 18.9167 29.1826 8.51126 29.1826 8.51126Z" fill="#2F76FF"/>
<path opacity="0.71" d="M19.1946 1.21228C20.1026 1.54061 20.9349 1.96996 21.7673 2.47508C22.5744 2.9802 23.3563 3.56109 24.0625 4.19249C24.7688 4.82388 25.4498 5.5058 26.0551 6.26348C26.6605 6.9959 27.1901 7.80409 27.6189 8.66279L25.6011 6.66757C24.9201 6.01092 24.2391 5.37952 23.5581 4.77337C22.8519 4.16723 22.1456 3.56109 21.4142 2.9802L19.1946 1.21228Z" fill="white"/>
</g>
<defs>
<clipPath id="clip0_16_891">
<rect width="68" height="74" fill="white"/>
</clipPath>
</defs>
</svg>
