<?xml version="1.0" encoding="utf-8"?><svg viewBox="0 0 40 40" xmlns="http://www.w3.org/2000/svg" xmlns:xlink="http://www.w3.org/1999/xlink"><style>:root>svg{display:none}:root>svg:target{display:block}</style><svg fill="currentColor" viewBox="0 0 31 24" id="arrow" xmlns="http://www.w3.org/2000/svg"><path fill-rule="evenodd" clip-rule="evenodd" d="M20.515 1.393l9.546 9.546a1.5 1.5 0 010 2.122l-9.546 9.546a1.5 1.5 0 11-2.122-2.122L25.38 13.5H0v-3h25.379l-6.986-6.985a1.5 1.5 0 112.122-2.122z"/></svg><svg fill="currentColor" viewBox="0 0 40 40" id="check" xmlns="http://www.w3.org/2000/svg"><path fill-rule="evenodd" clip-rule="evenodd" d="M20 0C9 0 0 9 0 20s9 20 20 20 20-9 20-20S31 0 20 0zm-4 30L6 20l2.8-2.8 7.2 7.2L31.2 9.2 34 12 16 30z"/></svg><svg fill="currentColor" viewBox="0 0 23 23" id="copy" xmlns="http://www.w3.org/2000/svg"><g clip-path="url(#cclip0_43_814)"><path d="M16.89 5.39H1.438a.719.719 0 00-.718.72v15.453c0 .396.322.718.719.718H16.89a.719.719 0 00.718-.718V6.108a.719.719 0 00-.718-.718z"/><path d="M21.563.719H5.75a.72.72 0 00-.719.719v3.234h11.86a1.439 1.439 0 011.437 1.437v11.86h3.235a.72.72 0 00.718-.719V1.437a.72.72 0 00-.718-.718z"/></g><defs><clipPath id="cclip0_43_814"><path d="M0 0h23v23H0z"/></clipPath></defs></svg><svg fill="currentColor" viewBox="0 0 27 23" id="tg" xmlns="http://www.w3.org/2000/svg"><path d="M10.157 21.608l.42-6.432L22.082 4.652c.51-.471-.105-.7-.78-.289l-14.2 9.11-6.143-1.978c-1.318-.38-1.333-1.307.3-1.976L25.183.15c1.093-.502 2.142.273 1.723 1.977l-4.075 19.48c-.285 1.384-1.109 1.719-2.247 1.08l-6.202-4.653L11.4 20.97c-.345.35-.63.639-1.244.639z"/></svg><svg fill="currentColor" viewBox="0 0 33 33" id="user" xmlns="http://www.w3.org/2000/svg"><path d="M16.5 28.38a11.933 11.933 0 01-9.9-5.28c.05-3.3 6.6-5.115 9.9-5.115 3.3 0 9.85 1.815 9.9 5.115a11.933 11.933 0 01-9.9 5.28zm0-23.43a4.95 4.95 0 110 9.9 4.95 4.95 0 010-9.9zm0-4.95A16.5 16.5 0 1033 16.5C33 7.375 25.575 0 16.5 0z"/></svg></svg>