<svg width="188" height="210" viewBox="0 0 188 210" fill="none" xmlns="http://www.w3.org/2000/svg">
<g id="Frame" clip-path="url(#clip0_14_433)">
<g id="Group">
<g id="Group_2">
<path id="Vector" d="M28.4145 65.7199C28.4145 65.7199 54.6486 37.4316 68.096 28.8164C81.5765 20.2012 119.54 0.891235 119.54 0.891235C119.54 0.891235 130.245 35.3851 128.527 51.2292C126.809 67.1063 121.621 88.8258 112.304 94.6683C102.987 100.544 91.5878 101.204 91.5878 101.204C91.5878 101.204 87.4577 105.33 83.6581 105.33C79.8584 105.33 77.4465 105 77.4465 105C77.4465 105 71.5653 109.126 67.7656 108.433C63.966 107.74 63.966 107.74 63.966 107.74C63.966 107.74 61.554 113.945 55.3424 113.252C49.1308 112.559 48.437 112.559 47.4127 112.559C46.3885 112.559 40.5073 111.536 40.5073 111.536C40.5073 111.536 31.8837 119.128 21.509 114.969C21.509 114.969 33.8992 120.448 36.7076 98.7614C38.6901 83.4125 28.4145 65.7199 28.4145 65.7199Z" fill="white"/>
<path id="Vector_2" d="M187.537 111.569C183.011 118.5 162.691 119.161 161.634 119.491C160.609 119.821 156.446 116.388 155.092 110.512C153.704 104.637 159.915 100.181 159.915 100.181C159.915 100.181 170.951 99.3225 175.312 100.478C179.674 101.633 185.423 103.779 185.522 103.911C185.654 104.109 189.156 106.353 187.537 111.569Z" fill="white"/>
<path id="Vector_3" d="M49.6926 138.537C49.6926 138.537 41.4656 134.906 34.2297 137.15C34.2297 137.15 24.0533 135.896 12.357 147.449C12.357 147.449 16.5531 145.931 18.5025 146.195L16.6852 151.344L24.9123 147.317L22.1369 158.309C22.1369 158.309 14.2072 183.23 9.05291 188.776C3.8986 194.354 1.25537 198.942 1.25537 198.942C1.25537 198.942 13.0838 201.583 23.3925 203.266C33.7011 204.95 84.5503 208.548 84.5503 208.548C84.5503 208.548 99.055 199.074 106.159 186.96C113.262 174.846 119.54 157.715 119.937 147.845C120.366 137.976 119.672 129.756 119.672 129.756L114.386 128.238L107.844 129.921C107.844 129.921 99.6167 132.133 94.4624 135.5C94.4624 135.5 88.4821 132.034 82.3366 133.982C76.158 135.896 69.0543 138.966 69.0543 138.966C69.0543 138.966 67.9309 135.5 62.6445 136.193C57.358 136.886 50.7169 138.933 50.7169 138.933L49.6926 138.537Z" fill="white"/>
</g>
<g id="Group_3">
<g id="Group_4">
<g id="Group_5">
<path id="Vector_4" d="M127.668 25.0534C126.875 21.1254 125.851 17.2634 124.595 13.4674C123.406 9.83652 122.018 6.04054 119.97 2.7727C120.135 2.27757 119.639 1.71643 118.946 1.88147C115.377 2.80571 111.974 4.39011 108.571 5.74346C105.069 7.16283 101.632 8.64821 98.1961 10.2656C91.522 13.4014 85.013 16.9003 78.7023 20.7293C66.0808 28.4533 54.3185 37.5967 43.6464 47.8623C37.6 53.7048 31.9831 59.9764 26.7958 66.6111C26.6636 66.7762 26.8949 66.9082 27.0271 66.7762C27.1262 66.6441 27.2584 66.5121 27.3575 66.3801C32.4127 73.1798 36.0471 80.9698 36.9722 89.42C37.4348 93.546 37.3026 97.7711 36.4766 101.831C35.6506 105.825 34.2629 110.215 31.1571 113.021C29.6373 114.407 27.6548 115.2 25.6724 115.299C25.4411 115.299 25.2098 115.266 24.9786 115.266C24.6151 115.233 24.2186 115.2 23.8221 115.167C23.723 115.134 23.5909 115.101 23.4917 115.068C22.5666 115.002 21.6415 114.771 20.7824 114.473C20.1547 114.242 19.5269 114.011 18.9322 113.714C18.9652 113.747 18.9652 113.813 18.9982 113.879C19.0313 113.945 19.0974 114.044 19.1634 114.11C18.8661 114.011 18.6018 113.879 18.3374 113.78C18.8 114.077 19.1965 114.407 19.6591 114.704C21.4763 116.685 24.3838 117.246 27.0271 116.817C28.6461 116.85 30.265 116.685 31.851 116.322C36.4436 115.299 40.9371 112.79 43.4151 108.697C48.1729 112.427 55.1445 113.384 60.497 110.248C60.5961 110.182 60.497 110.083 60.4309 110.116C54.1533 112.658 46.554 110.942 42.2587 105.693C46.1905 106.023 50.1223 106.386 54.0541 106.419C54.7149 106.419 55.0453 105.462 54.2854 105.363C49.891 104.769 45.4306 104.604 41.0032 104.307C40.4415 104.274 39.9789 104.835 40.3093 105.33C40.9371 106.254 41.664 107.113 42.49 107.839C42.4569 107.872 42.4239 107.905 42.3909 107.938C39.5494 111.239 35.981 113.714 31.7188 114.737C34.2629 112.757 35.9149 109.72 36.9062 106.683C39.8468 97.8702 39.252 87.7035 35.9149 79.0883C34.0316 74.2361 31.3223 69.8459 27.5227 66.248C46.4879 43.8353 69.8805 25.2845 96.478 12.5432C100.212 10.7608 103.978 9.07732 107.811 7.52592C111.644 5.97452 115.641 4.85223 119.474 3.26783C119.639 3.20181 119.738 3.10278 119.838 3.00376C120.829 6.13956 122.117 9.14334 123.142 12.2791C124.232 15.613 125.19 18.9799 125.95 22.4128C127.404 28.9484 128.197 35.6161 128.329 42.2839C128.56 55.8503 126.214 69.8129 120.928 82.3232C119.375 85.9541 117.459 89.651 114.353 92.1927C111.445 94.5693 107.745 95.7906 104.011 95.0644C103.053 94.8664 102.392 96.4508 103.417 96.7149C110.355 98.6624 116.699 93.9752 120.201 88.3307C122.15 85.2279 123.439 81.762 124.595 78.2961C125.752 74.8632 126.71 71.3974 127.503 67.8654C130.609 53.8368 130.543 39.115 127.668 25.0534Z" fill="#2F76FF"/>
</g>
<g id="Group_6">
<path id="Vector_5" d="M82.0393 92.2258C79.5282 94.7344 77.0172 97.2761 74.5061 99.7847C73.2836 98.8935 72.0281 97.9693 70.8056 97.078C70.376 96.7479 69.7152 96.979 69.4509 97.4411C66.8407 102.425 60.7282 103.086 56.5982 99.6527C56.0365 99.1906 55.2105 99.8507 55.4087 100.478C56.9947 105.396 61.9177 108.73 67.105 108.202C67.2042 108.202 67.2042 108.037 67.105 108.037C63.2063 108.07 59.4397 105.726 57.6555 102.26C61.9838 104.637 67.6667 103.119 70.4421 98.9265C71.5985 99.7847 72.788 100.643 73.9444 101.468C74.3079 101.732 74.8695 101.633 75.1669 101.303C77.711 98.4644 80.2882 95.6257 82.8323 92.8199C83.394 92.2588 82.5019 91.7307 82.0393 92.2258Z" fill="#2F76FF"/>
</g>
<g id="Group_7">
<path id="Vector_6" d="M90.1011 94.7674C88.1187 93.3811 86.0372 92.1268 83.9556 90.9054C83.8565 90.8394 83.7574 90.9715 83.8565 91.0375C85.7398 92.5229 87.6231 94.0082 89.6055 95.3616C89.969 95.5926 90.4976 95.0645 90.1011 94.7674Z" fill="#2F76FF"/>
</g>
<g id="Group_8">
<path id="Vector_7" d="M103.218 96.3518C100.245 95.5266 97.5021 94.5363 95.1232 92.4568C92.7774 90.3773 91.0593 87.6376 90.2663 84.6008C90.2002 84.3037 89.6716 84.4688 89.7046 84.7328C90.7619 90.8724 96.2796 97.144 102.855 97.3091C103.383 97.3421 103.879 96.5169 103.218 96.3518Z" fill="#2F76FF"/>
</g>
<g id="Group_9">
<path id="Vector_8" d="M88.2839 86.4162C88.2179 86.3502 88.0857 86.3832 88.0857 86.4822C88.1187 88.1656 88.8126 89.8161 89.2752 91.4335C89.8038 93.1829 90.4316 94.8994 91.0593 96.6488C91.3237 97.375 92.5131 96.8799 92.2818 96.1537C91.6871 94.4042 91.0924 92.6878 90.3985 90.9714C89.8038 89.453 89.2752 87.7695 88.2839 86.4162Z" fill="#2F76FF"/>
</g>
<g id="Group_10">
<path id="Vector_9" d="M113.527 93.6451C109.694 97.2101 104.837 99.7187 99.6169 100.445C94.4625 101.171 89.4734 100.082 84.7487 97.9692C83.9226 97.6062 82.9314 98.8275 83.7905 99.4216C85.6408 100.709 87.6893 101.567 89.903 102.095C87.458 102.755 85.046 103.416 82.4689 103.515C79.1979 103.647 76.059 103.119 72.9202 102.194C71.7638 101.864 70.7395 103.449 72.0281 104.01C73.1515 104.505 74.374 104.868 75.5965 105.099C75.233 105.132 74.8696 105.165 74.5061 105.264C74.0105 105.363 73.4819 105.528 72.9863 105.627C71.8299 105.891 70.6404 106.089 69.4509 106.155C67.006 106.287 64.6601 105.99 62.2812 105.363C61.1248 105.066 60.0344 106.683 61.356 107.212C63.8671 108.169 66.7416 108.433 69.3849 108.103C70.6404 107.938 71.929 107.608 73.1184 107.179C73.7462 106.948 74.3409 106.683 74.9026 106.353C75.3982 106.056 75.7617 105.594 76.1912 105.231C78.1736 105.561 80.2221 105.594 82.1385 105.363C85.0791 105 88.4161 104.142 90.8281 102.326C99.1543 103.911 108.868 100.544 113.56 93.7112C113.692 93.6451 113.593 93.5791 113.527 93.6451Z" fill="#2F76FF"/>
</g>
<g id="Group_11">
<path id="Vector_10" d="M151.953 100.808C135.4 102.755 118.912 105.099 102.392 107.278C87.8544 109.225 73.3167 111.206 58.7789 113.219C60.0344 112.889 61.2569 112.427 62.3803 111.8C64.2636 110.776 66.6094 109.06 67.4685 107.047C68.0302 105.792 66.4112 105.33 65.6513 106.089C64.9574 106.716 64.4288 107.542 63.7349 108.202C63.008 108.862 62.2151 109.456 61.3891 109.951C59.671 110.975 57.7216 111.602 55.7061 111.734C52.1708 111.998 48.1068 110.908 45.2323 108.796C45.1662 108.763 45.1001 108.829 45.1332 108.895C46.1574 110.083 47.3138 111.074 48.5363 111.866C47.2808 111.668 45.9592 111.635 44.7036 111.569C43.7124 111.503 42.7543 111.47 41.7631 111.437C40.7388 111.437 39.7476 111.635 38.7564 111.635C38.6903 111.635 38.6903 111.701 38.7233 111.734C39.6815 111.932 40.5736 112.361 41.5318 112.559C42.4899 112.757 43.4481 112.922 44.4063 113.054C46.2235 113.318 48.1068 113.714 49.924 113.549C50.2875 113.516 50.5518 113.219 50.5848 112.889C52.0717 113.483 53.7237 113.747 55.4748 113.714C54.5827 113.846 53.7237 113.945 52.8316 114.077C43.5803 115.365 34.329 116.685 25.0776 117.939C25.0116 117.939 25.0116 118.038 25.0776 118.038C58.1181 113.681 91.1915 109.588 124.232 105.264C133.483 104.043 142.735 102.821 151.986 101.468C152.415 101.402 152.382 100.775 151.953 100.808Z" fill="#2F76FF"/>
</g>
<g id="Group_12">
<path id="Vector_11" d="M50.0563 149.429C45.4306 147.746 40.2433 147.713 35.4855 148.703C31.2563 149.595 26.7628 151.344 23.3927 154.183C23.69 152.07 24.2187 149.991 24.7143 147.944C24.7143 147.944 24.7143 147.944 24.6813 147.944C24.0204 150.321 23.3927 152.763 22.4675 155.041C22.3023 155.437 22.7649 155.701 23.0623 155.47C25.0447 154.183 26.928 152.895 29.1087 151.938C31.2893 150.981 33.6022 150.255 35.948 149.793C40.5737 148.934 45.1994 149.297 49.7589 150.255C50.2545 150.354 50.5519 149.628 50.0563 149.429Z" fill="#2F76FF"/>
</g>
<g id="Group_13">
<path id="Vector_12" d="M76.5216 138.834C71.5985 142.795 66.6425 146.756 61.7195 150.684C62.6446 149.264 63.5697 147.812 64.4618 146.393C64.8253 145.832 63.9992 145.501 63.5697 145.766C61.4882 147.053 59.3736 148.34 57.292 149.628C55.4087 150.783 53.4263 151.872 51.6091 153.159C51.4769 150.882 51.576 148.538 51.51 146.261C51.51 146.195 51.4108 146.228 51.4108 146.261C51.2126 148.769 51.1796 151.311 50.8822 153.787C50.8492 154.051 51.1135 154.282 51.3778 154.15C53.5585 153.093 55.607 151.74 57.6885 150.519C59.1753 149.628 60.6622 148.736 62.182 147.878C61.0587 149.628 59.9683 151.344 58.8449 153.093C58.5145 153.622 59.3406 154.051 59.737 153.721C65.5521 149.033 71.3673 144.313 77.1824 139.626C77.7441 139.164 77.0833 138.372 76.5216 138.834Z" fill="#2F76FF"/>
</g>
<g id="Group_14">
<path id="Vector_13" d="M113.989 128.436L99.0221 136.193C99.0881 136.094 99.1542 135.962 99.2203 135.863C99.5177 135.401 98.8899 135.071 98.5265 135.17C91.8192 137.249 85.905 142.63 83.5591 149.264C81.9732 146.294 80.3873 143.323 78.8674 140.352C78.8344 140.286 78.7022 140.319 78.7352 140.418C80.2881 143.752 81.775 147.152 83.2287 150.519C83.3609 150.816 83.8895 150.849 84.0217 150.519C86.4337 144.115 91.0924 139.065 97.4692 136.655L97.0396 137.348C96.7753 137.777 97.337 138.24 97.7665 138.041C102.822 135.434 107.91 132.826 112.965 130.218C111.577 133.222 110.157 136.226 108.769 139.23C108.472 139.857 109.265 140.385 109.793 139.956C111.61 138.504 113.428 137.018 115.212 135.533C115.807 135.038 115.146 134.212 114.518 134.675C113.362 135.533 112.238 136.391 111.115 137.282C112.337 134.576 113.527 131.869 114.749 129.162C114.948 128.7 114.452 128.172 113.989 128.436Z" fill="#2F76FF"/>
</g>
<g id="Group_15">
<path id="Vector_14" d="M120.631 129.393C119.738 128.832 118.714 128.568 117.723 128.271C116.666 127.974 115.608 127.677 114.518 127.545C113.626 127.446 112.965 128.766 113.956 129.129C114.981 129.525 116.071 129.69 117.128 129.921C117.723 130.053 118.351 130.153 118.945 130.219C121.357 154.018 112.172 178.51 96.2797 196.136C91.8854 201.022 86.8963 205.181 81.8411 209.34C81.775 209.175 81.742 209.01 81.742 208.812C81.7089 208.482 81.7089 208.119 81.7089 207.788C81.5107 207.887 81.3124 208.02 81.0811 208.119C72.0941 206.864 63.008 206.105 53.955 205.115C44.8688 204.125 35.7827 203.167 26.6966 202.21C24.1195 201.946 10.5729 200.395 7.99574 200.131C5.5177 199.899 2.97359 199.569 0.462518 199.635C0.363397 199.635 0.330357 199.8 0.429478 199.833C4.65865 200.956 9.15215 201.253 13.4804 201.847C18.0731 202.474 33.7012 204.356 38.2938 204.917C47.3469 206.072 56.4 207.161 65.453 208.251C69.0875 208.68 72.755 209.208 76.3894 209.637C78.1736 209.67 79.9578 209.769 81.7089 209.967C81.808 209.901 81.9072 209.835 81.9732 209.736C81.9402 209.703 81.9402 209.67 81.9072 209.637C87.0284 206.864 91.588 203.002 95.652 198.843C99.9472 194.486 103.747 189.634 107.018 184.451C113.593 174.021 117.822 162.468 119.705 150.321C120.73 143.653 120.994 136.853 120.498 130.153C120.829 129.954 120.928 129.558 120.631 129.393Z" fill="#2F76FF"/>
</g>
<g id="Group_16">
<path id="Vector_15" d="M113.791 128.205C109.991 128.238 105.961 129.426 102.425 130.714C99.3524 131.803 96.2136 133.222 93.6695 135.302C92.8765 134.047 90.4646 133.519 89.209 133.288C87.1275 132.892 84.9468 133.024 82.8653 133.354C80.2881 133.783 77.744 134.477 75.3321 135.467C74.0765 135.962 72.8871 136.589 71.6976 137.216C71.202 137.48 70.6734 137.777 70.1777 138.108C69.7482 137.051 68.4927 136.259 67.5015 135.83C65.9486 135.17 64.1644 135.203 62.5124 135.368C58.5806 135.764 54.6818 137.018 51.1795 138.801C51.1465 138.801 51.1465 138.834 51.1134 138.834C49.7588 137.876 47.9746 137.249 46.5538 136.82C44.241 136.127 41.8291 135.863 39.3841 135.962C33.9324 136.226 28.4477 138.735 25.0445 143.026C24.582 143.62 25.3749 144.412 25.9697 143.884C29.7693 140.451 34.3289 137.975 39.5493 137.612C41.8621 137.447 44.208 137.711 46.4547 138.339C48.5363 138.9 50.4526 140.088 52.5342 140.583C52.6333 140.616 52.7324 140.484 52.6663 140.385C52.3359 139.857 51.8734 139.395 51.3447 138.999C54.4835 137.909 57.7215 137.183 61.0256 136.952C62.5785 136.853 64.1644 136.688 65.6843 137.117C66.4111 137.315 67.105 137.612 67.6667 138.074C68.2284 138.504 68.5588 139.131 69.1205 139.56C69.5169 139.857 70.0456 139.626 70.2438 139.23C70.8055 139.065 71.3342 138.801 71.8628 138.537C72.8871 138.108 73.9444 137.678 75.0017 137.315C77.4136 136.49 79.8916 135.83 82.4027 135.401C84.286 135.071 86.2024 134.939 88.0857 135.17C89.0108 135.302 89.9029 135.533 90.7619 135.896C91.621 136.292 92.1496 136.886 93.1408 136.853C93.5373 136.853 93.9338 136.424 93.9008 136.028C96.9075 134.906 99.782 133.519 102.855 132.529C104.606 131.968 106.357 131.473 108.174 131.11C109.991 130.747 111.842 130.615 113.659 130.218C114.683 129.987 115.146 128.205 113.791 128.205Z" fill="#2F76FF"/>
</g>
<g id="Group_17">
<path id="Vector_16" d="M33.2386 136.919C31.058 136.985 29.0755 137.117 26.961 137.678C24.7803 138.273 22.6987 139.131 20.7163 140.187C18.8 141.21 16.9828 142.399 15.2977 143.818C13.5796 145.237 12.2249 146.954 10.639 148.472C10.0443 149.033 11.0024 149.826 11.5641 149.363C13.6457 147.647 16.1898 146.921 18.8991 146.954C19.5929 146.954 19.8903 145.997 19.1304 145.864C17.3462 145.534 15.562 145.798 13.943 146.426C14.769 145.633 15.6281 144.874 16.4541 144.214C18.04 142.927 19.7251 141.804 21.5423 140.88C23.2604 139.989 25.0777 139.23 26.9279 138.669C28.9434 138.008 31.1901 137.381 33.3047 137.117C33.3708 137.084 33.3708 136.919 33.2386 136.919Z" fill="#2F76FF"/>
</g>
<g id="Group_18">
<path id="Vector_17" d="M24.2185 154.381C23.6238 155.8 23.5907 157.45 23.3264 158.969C23.0291 160.652 22.6656 162.27 22.203 163.92C21.344 167.122 20.2537 170.291 18.9651 173.361C16.421 179.5 13.0508 185.31 9.05296 190.657C6.77317 193.694 4.22906 196.433 1.71798 199.272C1.4867 199.536 1.85015 199.833 2.11447 199.635C7.26878 195.476 11.4649 189.898 14.9011 184.286C18.4695 178.51 21.2449 172.271 23.1612 165.769C23.7229 163.887 24.1855 162.006 24.648 160.091C25.0445 158.375 25.7714 156.295 25.5401 154.513C25.474 153.853 24.4828 153.787 24.2185 154.381Z" fill="#2F76FF"/>
</g>
<g id="Group_19">
<path id="Vector_18" d="M23.4587 147.647C21.4762 148.406 19.5599 149.429 17.6436 150.387C18.3374 148.901 19.0643 147.383 19.2956 145.832C19.2956 145.733 19.1965 145.7 19.1304 145.766C17.8748 147.284 17.1479 149.363 16.3219 151.146C16.1567 151.509 16.5532 151.839 16.8836 151.707C19.2295 150.651 21.6745 149.727 23.9212 148.505C24.516 148.208 24.0204 147.449 23.4587 147.647Z" fill="#2F76FF"/>
</g>
<g id="Group_20">
<path id="Vector_19" d="M117.69 131.473C117.69 134.378 118.186 137.282 118.219 140.187C118.252 143.026 118.152 145.831 117.822 148.637C117.194 154.315 115.972 159.893 114.221 165.339C110.652 176.232 104.969 186.432 97.5022 195.113C95.4537 197.49 93.24 199.734 90.9272 201.913C88.8787 203.827 86.665 205.544 84.6165 207.425C84.4843 207.359 84.3191 207.293 84.1209 207.293C62.1159 206.93 40.111 204.95 18.3704 201.517C15.3307 201.022 12.291 200.427 9.21822 199.998C6.70715 199.635 4.19608 199.074 1.65197 199.008C2.47798 198.414 3.20487 197.688 3.93176 196.962C5.15425 195.74 6.27763 194.486 7.401 193.166C9.58167 190.591 11.5311 187.851 13.3483 184.98C16.9166 179.236 19.7581 173.096 21.8066 166.66C22.963 163.029 24.0864 159.167 24.4499 155.338C24.549 154.117 22.7978 154.018 22.5335 155.14C21.5423 159.266 20.7824 163.359 19.4277 167.386C18.0731 171.413 16.388 175.341 14.4056 179.104C12.4231 182.867 10.1434 186.465 7.63228 189.898C6.40979 191.614 5.08817 193.232 3.73351 194.849C2.61014 196.169 1.22244 197.457 0.429471 199.008C0.36339 199.008 0.264269 199.008 0.198188 199.008C0.0660266 199.008 -0.0661351 199.239 0.099067 199.305C0.132107 199.338 0.198188 199.338 0.264269 199.371C0.231229 199.437 0.231229 199.47 0.198188 199.536C0.165148 199.635 0.264269 199.734 0.36339 199.701C0.462512 199.668 0.561633 199.635 0.660754 199.569C2.7423 200.593 5.05513 201.022 7.30188 201.517C10.0112 202.144 12.7205 202.672 15.4629 203.2C20.9145 204.19 26.3992 205.148 31.917 205.907C42.8534 207.425 53.8558 208.515 64.8913 209.142C71.136 209.505 77.3806 209.736 83.6583 209.868C84.4182 209.868 85.1781 209.505 85.3433 208.713C85.3433 208.647 85.3764 208.548 85.3764 208.482C87.6231 207.227 89.6386 205.544 91.588 203.926C93.8017 202.078 95.8502 200.031 97.8326 197.952C101.797 193.727 105.267 189.007 108.24 184.055C114.32 173.988 118.252 162.666 119.738 151.014C120.135 147.812 120.399 144.577 120.465 141.342C120.564 138.041 120.73 134.411 120.003 131.176C119.639 129.855 117.69 130.152 117.69 131.473Z" fill="#2F76FF"/>
</g>
<g id="Group_21">
<path id="Vector_20" d="M120.267 0.495149C120.102 0.231081 119.837 0.198073 119.573 0.297098C119.243 2.19713e-05 118.747 -0.0990035 118.185 0.132056C104.342 5.90854 91.0262 13.3355 78.5039 21.5216C66.0807 29.6416 54.2853 38.851 43.5141 49.0506C40.5405 51.8564 37.5999 54.7281 34.8245 57.7319C32.0821 60.7026 29.1085 63.7064 26.9609 67.1393C26.8948 67.2383 27.06 67.3043 27.1261 67.2383C27.2913 67.1063 27.4234 67.0072 27.5886 66.8752C28.2494 67.9975 28.7781 69.3178 29.3728 70.4731C29.8684 71.4304 30.331 72.3876 30.7936 73.3779C31.7187 75.3254 32.5447 77.3389 33.2385 79.3524C34.7584 83.6765 35.7166 88.1987 36.0139 92.7869C36.2783 97.045 35.9479 101.402 34.428 105.396C32.9742 109.225 30.5953 112.295 27.3574 114.804C26.5313 115.464 27.4234 116.388 28.2494 115.926C33.9985 112.691 36.9721 105.726 37.666 99.4216C38.4589 92.0937 37.0382 84.4687 34.3619 77.636C33.569 75.6225 32.6108 73.675 31.5535 71.7935C30.4632 69.912 29.0755 68.3936 27.7208 66.7102C30.364 64.5316 32.7429 61.957 35.221 59.5803C37.8642 57.0387 40.5074 54.497 43.2168 52.0544C48.6684 47.1031 54.2853 42.3499 60.0674 37.7617C71.5324 28.7174 83.7574 20.5973 96.544 13.5335C103.912 9.47346 111.478 5.90854 119.144 2.44265C119.276 2.37663 119.408 2.31062 119.507 2.21159C120.366 5.05032 121.39 7.85604 122.249 10.6948C123.241 13.8966 124.067 17.1644 124.761 20.4323C126.148 27.001 126.941 33.6687 127.073 40.3694C127.338 53.6058 125.289 67.1063 120.564 79.4845C117.921 86.4162 114.088 92.7539 107.216 96.0877C106.159 96.5829 106.72 98.1012 107.844 97.6391C113.923 95.1635 118.152 89.42 121.06 83.7426C124.199 77.603 126.214 70.7372 127.602 64.0035C130.41 50.371 130.477 36.1773 127.833 22.5118C127.106 18.6828 126.115 14.8868 124.926 11.1899C123.67 7.59197 122.316 3.82901 120.267 0.495149Z" fill="#2F76FF"/>
</g>
<g id="Group_22">
<path id="Vector_21" d="M122.943 116.619C96.3458 118.93 69.7813 121.438 43.2168 124.079C35.7497 124.838 28.2826 125.663 20.8154 126.423C20.7493 126.423 20.7493 126.522 20.8154 126.522C47.413 124.277 73.9775 121.9 100.575 119.359C108.042 118.666 115.509 117.939 122.976 117.18C123.406 117.18 123.373 116.586 122.943 116.619Z" fill="#2F76FF"/>
</g>
<g id="Group_23">
<path id="Vector_22" d="M129.089 124.244C121.589 124.409 114.056 124.97 106.555 125.366C98.9892 125.795 91.4229 126.225 83.8897 126.687C68.7902 127.611 53.6577 128.502 38.5582 129.492C30.0008 130.053 21.4763 130.78 12.9519 131.341C12.8858 131.341 12.8858 131.44 12.9519 131.44C28.0183 130.681 43.0517 130.087 58.1182 129.228C73.2176 128.337 88.3502 127.512 103.45 126.555C112.007 126.026 120.565 125.663 129.089 124.838C129.419 124.805 129.452 124.211 129.089 124.244Z" fill="#2F76FF"/>
</g>
<g id="Group_24">
<path id="Vector_23" d="M147.69 113.945C141.71 114.44 135.829 115.365 129.882 116.025C129.849 116.025 129.849 116.091 129.882 116.091C135.829 115.431 141.776 115.068 147.724 114.275C147.955 114.242 147.922 113.912 147.69 113.945Z" fill="#2F76FF"/>
</g>
<g id="Group_25">
<g id="Group_26">
<path id="Vector_24" d="M159.849 99.6856C155.918 101.468 153.605 106.353 153.869 110.512C154.133 115.068 157.437 119.029 161.799 120.25C161.931 120.283 162.063 120.085 161.931 120.019C158.263 118.269 155.587 114.638 155.257 110.545C155.092 108.565 155.587 106.551 156.512 104.835C157.504 103.019 158.924 101.831 160.543 100.61C161.138 100.148 160.477 99.3885 159.849 99.6856Z" fill="#2F76FF"/>
</g>
<g id="Group_27">
<path id="Vector_25" d="M185.522 103.647C185.489 103.68 185.489 103.746 185.555 103.713C185.588 103.713 185.555 103.647 185.522 103.647Z" fill="#2F76FF"/>
</g>
<g id="Group_28">
<path id="Vector_26" d="M183.506 102.722C182.449 102.227 181.392 101.798 180.334 101.402C178.319 100.643 176.237 100.082 174.09 99.7186C171.942 99.3555 169.795 99.1245 167.614 99.0915C165.433 99.0584 163.021 99.0254 160.907 99.5536C159.948 99.7846 159.948 101.072 161.006 101.006C163.12 100.907 165.169 100.544 167.283 100.544C169.398 100.544 171.513 100.709 173.594 101.006C175.676 101.336 177.79 101.765 179.806 102.359C180.797 102.656 181.755 102.953 182.713 103.317C183.506 103.614 184.299 104.142 185.125 103.977C185.158 103.977 185.191 103.944 185.158 103.911C184.927 103.251 184.167 103.019 183.506 102.722Z" fill="#2F76FF"/>
</g>
<g id="Group_29">
<path id="Vector_27" d="M185.621 113.615C184.729 113.747 183.903 114.242 183.077 114.605C182.086 115.002 181.094 115.398 180.103 115.728C178.022 116.454 175.874 117.015 173.693 117.444C171.612 117.84 169.53 118.137 167.416 118.236C166.292 118.302 165.169 118.269 164.046 118.236C163.22 118.203 162.427 118.137 161.634 118.335C161.27 117.84 160.609 117.576 160.114 117.18C159.387 116.619 158.726 115.992 158.164 115.266C156.942 113.681 156.182 111.734 156.017 109.72C155.885 107.773 156.446 105.825 157.504 104.208C158.032 103.383 158.693 102.623 159.486 102.029C160.147 101.501 161.072 101.171 161.601 100.511C161.898 100.148 161.601 99.7516 161.171 99.7846C159.288 99.8177 157.371 102.26 156.413 103.68C155.224 105.495 154.53 107.608 154.497 109.786C154.464 112.031 155.224 114.209 156.545 116.025C157.371 117.147 159.056 119.095 160.675 119.359C160.675 119.656 160.841 119.92 161.171 120.085C162.129 120.547 163.319 120.349 164.343 120.283C165.4 120.184 166.458 120.085 167.515 119.92C169.762 119.59 172.008 119.194 174.222 118.632C176.337 118.071 178.385 117.411 180.401 116.586C181.392 116.19 182.35 115.761 183.308 115.299C184.134 114.903 185.092 114.539 185.72 113.879C185.786 113.681 185.72 113.582 185.621 113.615Z" fill="#2F76FF"/>
</g>
<g id="Group_30">
<path id="Vector_28" d="M184.96 103.185C184.564 102.92 184.035 103.515 184.465 103.779C186.414 105 187.934 107.047 187.57 109.456C187.438 110.38 187.141 111.272 186.645 112.064C186.183 112.856 185.489 113.45 184.993 114.242C184.96 114.275 185.026 114.308 185.026 114.275C186.976 113.747 188 111.107 188 109.291C188 106.882 186.976 104.538 184.96 103.185Z" fill="#2F76FF"/>
</g>
<g id="Group_31">
<g id="Group_32">
<path id="Vector_29" d="M184.2 106.089C184.2 106.089 184.167 106.089 184.167 106.122C184.134 106.188 184.134 106.254 184.134 106.353C184.167 106.221 184.2 106.155 184.2 106.089Z" fill="#2F76FF"/>
</g>
<g id="Group_33">
<path id="Vector_30" d="M184.068 106.848C184.035 106.881 184.035 106.947 184.035 107.013C184.035 106.947 184.035 106.914 184.068 106.848Z" fill="#2F76FF"/>
</g>
<g id="Group_34">
<path id="Vector_31" d="M185.291 109.027C185.291 108.73 185.092 106.683 184.564 106.188V106.221C184.597 106.254 184.597 106.287 184.597 106.32C184.597 106.551 184.597 106.782 184.564 107.013C184.564 107.145 184.432 107.178 184.332 107.145C184.299 107.311 184.266 107.509 184.233 107.674C184.2 107.773 184.035 107.74 184.035 107.641C184.035 107.608 184.035 107.575 184.035 107.542C184.002 107.542 183.936 107.542 183.903 107.509C183.87 107.971 183.87 108.4 183.87 108.862C183.903 109.291 183.936 109.72 184.002 110.149C184.068 110.545 184.167 110.941 184.299 111.338C184.332 111.536 184.399 111.701 184.498 111.833C185.39 111.139 185.324 109.951 185.291 109.027Z" fill="#2F76FF"/>
</g>
<g id="Group_35">
<g id="Group_36">
<path id="Vector_32" d="M184.597 106.221C184.63 106.221 184.63 106.221 184.663 106.254C184.63 106.221 184.597 106.188 184.597 106.155V106.188C184.564 106.221 184.597 106.221 184.597 106.221Z" fill="#2F76FF"/>
</g>
<g id="Group_37">
<path id="Vector_33" d="M184.167 106.089C184.134 106.155 184.134 106.221 184.134 106.32C184.167 106.254 184.167 106.155 184.2 106.089C184.2 106.089 184.2 106.089 184.167 106.089Z" fill="#2F76FF"/>
</g>
<g id="Group_38">
<g id="Group_39">
<path id="Vector_34" d="M184.134 106.32C184.167 106.254 184.167 106.155 184.2 106.089C184.2 106.089 184.167 106.089 184.167 106.122C184.167 106.155 184.134 106.221 184.134 106.32Z" fill="#2F76FF"/>
</g>
<g id="Group_40">
<g id="Group_41">
<path id="Vector_35" d="M184.134 106.32C184.167 106.254 184.167 106.155 184.2 106.089C184.2 106.089 184.167 106.089 184.167 106.122C184.167 106.155 184.134 106.221 184.134 106.32Z" fill="#2F76FF"/>
</g>
<g id="Group_42">
<g id="Group_43">
<path id="Vector_36" d="M184.134 106.32C184.167 106.254 184.167 106.155 184.2 106.089C184.2 106.089 184.167 106.089 184.167 106.122C184.167 106.155 184.134 106.221 184.134 106.32Z" fill="#2F76FF"/>
</g>
<g id="Group_44">
<g id="Group_45">
<path id="Vector_37" d="M184.134 106.32C184.167 106.254 184.167 106.155 184.2 106.089C184.2 106.089 184.167 106.089 184.167 106.122C184.167 106.155 184.134 106.221 184.134 106.32Z" fill="#2F76FF"/>
</g>
<g id="Group_46">
<g id="Group_47">
<path id="Vector_38" d="M184.134 106.32C184.167 106.254 184.167 106.155 184.2 106.089C184.2 106.089 184.167 106.089 184.167 106.122C184.167 106.155 184.134 106.221 184.134 106.32Z" fill="#2F76FF"/>
</g>
<g id="Group_48">
<g id="Group_49">
<path id="Vector_39" d="M184.134 106.32C184.167 106.254 184.167 106.155 184.2 106.089C184.2 106.089 184.167 106.089 184.167 106.122C184.167 106.155 184.134 106.221 184.134 106.32Z" fill="#2F76FF"/>
</g>
<g id="Group_50">
<g id="Group_51">
<path id="Vector_40" d="M184.134 106.32C184.167 106.254 184.167 106.155 184.2 106.089C184.2 106.089 184.167 106.089 184.167 106.122C184.167 106.155 184.134 106.221 184.134 106.32Z" fill="#2F76FF"/>
</g>
<g id="Group_52">
<g id="Group_53">
<path id="Vector_41" d="M184.134 106.32C184.167 106.254 184.167 106.155 184.2 106.089C184.2 106.089 184.167 106.089 184.167 106.122C184.167 106.155 184.134 106.221 184.134 106.32Z" fill="#2F76FF"/>
</g>
<g id="Group_54">
<g id="Group_55">
<path id="Vector_42" d="M184.134 106.32C184.167 106.254 184.167 106.155 184.2 106.089C184.2 106.089 184.167 106.089 184.167 106.122C184.167 106.155 184.134 106.221 184.134 106.32Z" fill="#2F76FF"/>
</g>
<g id="Group_56">
<g id="Group_57">
<path id="Vector_43" d="M184.134 106.32C184.167 106.254 184.167 106.155 184.2 106.089C184.2 106.089 184.167 106.089 184.167 106.122C184.167 106.155 184.134 106.221 184.134 106.32Z" fill="#2F76FF"/>
</g>
<g id="Group_58">
<path id="Vector_44" d="M185.885 110.281C185.885 110.149 185.885 110.017 185.885 109.885C186.15 109.819 186.447 109.753 186.645 109.621C186.414 109.588 186.117 109.621 185.852 109.654C185.852 109.555 185.852 109.423 185.819 109.324C186.117 109.258 186.381 109.192 186.645 109.093C186.678 109.093 186.678 109.06 186.645 109.027C186.381 108.994 186.084 108.994 185.819 109.027C185.786 108.862 185.786 108.664 185.753 108.532C185.852 108.499 185.951 108.466 186.051 108.466C186.249 108.433 186.447 108.4 186.579 108.301C186.579 108.301 186.579 108.301 186.579 108.268C186.381 108.202 186.183 108.268 185.984 108.268C185.885 108.268 185.819 108.268 185.72 108.301C185.72 108.268 185.687 108.202 185.687 108.169C185.687 108.103 185.654 107.971 185.621 107.872C185.72 107.839 185.819 107.806 185.918 107.806C186.117 107.773 186.282 107.707 186.48 107.641C186.513 107.641 186.48 107.608 186.48 107.608C186.282 107.608 186.084 107.608 185.852 107.641C185.753 107.641 185.654 107.641 185.555 107.674C185.522 107.542 185.489 107.41 185.423 107.245C185.489 107.212 185.588 107.212 185.654 107.179C185.852 107.145 186.051 107.112 186.249 107.013C186.282 107.013 186.249 106.98 186.249 106.98C186.017 106.947 185.819 106.98 185.588 106.98C185.522 106.98 185.423 106.98 185.357 106.98C185.324 106.848 185.258 106.749 185.225 106.65C185.291 106.65 185.357 106.617 185.423 106.617C185.588 106.584 185.786 106.551 185.951 106.485C185.786 106.452 185.621 106.452 185.423 106.452C185.324 106.452 185.225 106.452 185.092 106.452C185.026 106.353 184.993 106.287 184.927 106.188C184.993 106.155 185.026 106.155 185.092 106.122C185.258 106.089 185.423 106.023 185.555 105.957C185.39 105.924 185.225 105.99 185.059 106.023C184.96 106.056 184.861 106.056 184.762 106.089C184.663 106.023 184.564 105.99 184.432 105.99C184.365 105.957 184.233 105.99 184.2 106.089C184.167 106.089 184.167 106.089 184.134 106.122C184.233 105.825 184.498 105.66 184.927 105.627C184.927 105.66 184.993 105.66 184.993 105.594C184.927 105.033 184.399 104.967 184.002 105.33C183.209 106.089 183.308 108.202 183.374 109.192C183.407 110.182 183.473 112.163 184.498 112.724C185.158 113.087 185.918 112.757 185.885 111.998C185.885 111.701 185.456 111.8 185.423 111.998C185.357 111.998 185.291 112.031 185.225 112.031C185.291 111.998 185.324 111.932 185.357 111.866C185.456 111.833 185.522 111.833 185.621 111.8C185.885 111.734 186.117 111.668 186.381 111.569C186.414 111.569 186.381 111.536 186.381 111.536C186.117 111.503 185.852 111.536 185.555 111.569C185.621 111.437 185.654 111.305 185.72 111.173C185.786 111.173 185.819 111.14 185.885 111.14C186.084 111.074 186.282 111.04 186.447 110.941C186.48 110.941 186.48 110.875 186.447 110.875C186.249 110.842 186.051 110.875 185.819 110.908C185.786 110.908 185.786 110.908 185.753 110.908C185.786 110.809 185.786 110.677 185.819 110.578C186.117 110.545 186.381 110.512 186.645 110.413C186.678 110.413 186.645 110.38 186.645 110.38C186.414 110.248 186.15 110.248 185.885 110.281ZM184.134 106.32C184.134 106.254 184.134 106.155 184.167 106.089C184.167 106.089 184.2 106.089 184.2 106.056C184.2 106.155 184.167 106.221 184.134 106.32ZM184.597 106.221C184.63 106.221 184.63 106.221 184.663 106.254C184.63 106.254 184.597 106.254 184.597 106.221Z" fill="#2F76FF"/>
</g>
</g>
</g>
</g>
</g>
</g>
</g>
</g>
</g>
</g>
</g>
</g>
</g>
</g>
<g id="Group_59">
<path id="Vector_45" d="M109.43 137.348C107.348 147.086 103.714 156.493 98.6916 165.108C93.5043 174.021 86.7971 182.405 78.2396 188.313C70.409 193.727 61.0586 196.665 51.543 195.377C42.589 194.156 34.395 189.271 30.3971 180.986C25.8706 171.611 27.06 160.619 31.0909 151.311C31.157 151.113 30.8927 151.047 30.7936 151.212C26.4983 159.332 25.3419 169.499 28.2164 178.279C31.0579 186.96 38.0955 193.265 46.8182 195.773C56.0365 198.381 65.8825 196.797 74.2417 192.34C83.7904 187.257 91.3236 179.038 97.2048 170.093C103.747 160.19 108.339 149.099 110.817 137.546C111.049 136.589 109.595 136.523 109.43 137.348Z" fill="#2F76FF"/>
</g>
<g id="Group_60">
<path id="Vector_46" d="M100.344 44.0664C91.0924 38.752 80.1561 41.2937 71.4004 46.377C66.3121 49.3147 61.5873 53.0117 57.1599 56.8407C53.096 60.3726 49.2963 64.3006 46.6531 69.0208C43.8777 73.9721 42.6221 79.4845 43.4151 85.129C44.2411 90.9715 46.8183 98.0353 42.8534 103.317C42.7213 103.482 42.9525 103.614 43.0847 103.482C46.0583 99.8837 46.0914 95.2626 45.4306 90.8724C45.0341 88.1657 44.4063 85.459 44.2411 82.7193C44.109 80.1777 44.4724 77.669 45.1663 75.2264C48.206 64.8287 57.3582 57.5339 65.7504 51.3943C74.2749 45.1557 85.4095 39.6102 96.1146 43.4722C104.507 46.509 110.157 54.7281 112.007 63.1783C114.452 74.2031 110.95 85.6901 106.159 95.5926C105.729 96.4839 107.183 96.946 107.547 96.1208C111.875 86.8454 115.113 76.6128 113.923 66.2811C112.965 57.4348 108.174 48.5886 100.344 44.0664Z" fill="#2F76FF"/>
</g>
<g id="Group_61">
<path id="Vector_47" d="M96.6761 60.4716C93.9338 58.194 90.5306 56.8737 87.0283 56.3125C72.6557 54.101 58.4484 64.2346 53.1949 77.2069C49.5935 86.0532 50.783 95.4606 52.6333 104.571C52.6993 104.868 53.1949 104.802 53.1619 104.505C52.2037 96.7149 50.9151 88.6278 53.0958 80.9039C54.9461 74.3022 59.0431 68.3606 64.3956 64.1025C69.8143 59.7784 76.6536 57.1047 83.6582 57.3028C87.0944 57.4018 90.5637 58.161 93.5703 59.9435C96.9074 61.891 99.3194 64.9938 100.773 68.5587C104.242 77.1409 101.897 86.4493 99.4515 94.9325C99.1872 95.7907 100.641 95.8897 100.872 95.0975C103.218 87.0434 105.333 78.4612 102.888 70.1761C101.731 66.4461 99.7159 62.9802 96.6761 60.4716Z" fill="#2F76FF"/>
</g>
<g id="Group_62">
<path id="Vector_48" d="M93.2069 77.9661C91.1584 74.1371 87.4248 71.6945 83.1956 70.9353C73.5478 69.2519 65.1886 76.3817 62.0167 85.0299C60.0343 90.3773 59.6708 96.2528 60.5299 101.864C60.5299 101.93 60.629 101.897 60.629 101.864C60.8273 92.8199 61.9176 83.1484 68.9552 76.6458C72.094 73.741 76.125 71.9586 80.4202 72.0246C84.4842 72.0906 88.449 73.8071 90.894 77.1079C92.3148 79.0224 93.1077 81.366 93.3721 83.7096C93.6364 86.1192 93.2069 88.2978 92.7113 90.6414C92.5461 91.4336 93.7355 91.5986 94.0329 90.9715C95.784 86.9774 95.2554 81.7291 93.2069 77.9661Z" fill="#2F76FF"/>
</g>
<g id="Group_63">
<path id="Vector_49" d="M102.458 135.566C100.905 139.791 99.782 144.181 98.1961 148.406C96.6762 152.532 94.9581 156.559 92.8766 160.421C88.9447 167.749 83.6583 174.549 76.7528 179.269C69.8143 183.989 61.1578 186.531 52.7985 185.046C45.4966 183.758 38.5581 179.236 35.1549 172.535C33.3377 168.904 32.6439 164.778 33.1395 160.751C33.6351 156.625 35.4193 153.126 37.9303 149.859C38.0295 149.727 37.8643 149.594 37.7651 149.694C32.0161 154.084 30.6945 162.765 32.4126 169.4C34.395 176.926 40.6397 182.636 47.7764 185.277C55.9374 188.28 64.9904 187.158 72.6889 183.395C80.6846 179.5 86.9954 172.964 91.7532 165.538C94.5947 161.048 96.8745 156.262 98.8238 151.311C100.773 146.327 102.69 141.111 103.846 135.863C104.044 135.071 102.723 134.84 102.458 135.566Z" fill="#2F76FF"/>
</g>
<g id="Group_64">
<path id="Vector_50" d="M91.0924 138.537C90.1343 140.979 89.7047 143.653 88.8126 146.162C87.9206 148.67 86.7972 151.08 85.5416 153.423C82.9645 158.144 79.6605 162.468 75.7286 166.165C71.5325 170.126 66.18 173.592 60.2327 173.724C55.1114 173.823 50.1223 171.149 47.2148 166.99C43.6794 161.94 43.8446 155.371 46.4218 149.958C46.4879 149.859 46.3227 149.793 46.2566 149.859C43.0847 154.15 42.6221 160.157 44.6706 165.009C46.7191 169.895 51.2126 173.493 56.3339 174.714C68.4928 177.586 79.3631 166.33 85.2773 157.087C87.0615 154.282 88.5814 151.311 89.8369 148.241C91.0264 145.303 92.4141 141.87 92.4801 138.702C92.4471 137.975 91.2907 137.975 91.0924 138.537Z" fill="#2F76FF"/>
</g>
<g id="Group_65">
<path id="Vector_51" d="M77.2485 139.032C75.5964 140.022 74.0766 141.441 72.5567 142.63C71.0038 143.851 69.4509 145.072 67.9311 146.294C66.3782 147.515 64.8583 148.736 63.3384 149.991C61.9177 151.146 60.4309 152.268 59.2414 153.622C59.0762 153.787 59.3075 154.051 59.5058 153.952C61.1578 153.126 62.6115 151.971 64.0653 150.882C65.7173 149.661 67.3694 148.439 69.0214 147.218C70.6073 146.03 72.1602 144.841 73.7462 143.653C75.266 142.498 76.9841 141.375 78.3388 140.022C78.9996 139.362 77.9093 138.669 77.2485 139.032Z" fill="#2F76FF"/>
</g>
<g id="Group_66">
<path id="Vector_52" d="M62.0167 147.251C60.0674 147.878 58.1841 149.33 56.4329 150.354C54.5496 151.443 52.5011 152.499 50.816 153.919C50.6508 154.051 50.783 154.282 50.9812 154.216C53.0958 153.556 55.0783 152.4 57.0276 151.377C57.9858 150.882 58.944 150.387 59.8691 149.859C60.7942 149.363 61.8185 148.967 62.6115 148.274C63.1732 147.779 62.7106 147.02 62.0167 147.251Z" fill="#2F76FF"/>
</g>
<g id="Group_67">
<path id="Vector_53" d="M51.2126 150.585C46.686 149.066 41.6308 148.769 36.9061 149.297C32.3465 149.792 27.2252 151.179 23.5247 154.018C23.2934 154.183 23.4917 154.48 23.756 154.414C25.8375 153.687 27.82 152.796 29.9345 152.169C32.1813 151.509 34.4941 151.08 36.8069 150.816C41.4656 150.321 45.9591 150.882 50.4526 152.07C51.4439 152.301 52.3029 150.948 51.2126 150.585Z" fill="#2F76FF"/>
</g>
<g id="Group_68">
<path id="Vector_54" d="M97.2709 135.401C95.4537 135.698 93.6365 136.886 92.1496 137.91C90.5637 139.032 89.1099 140.385 87.8544 141.871C85.5746 144.676 83.5591 148.373 83.7243 152.07C83.7243 152.235 83.9887 152.235 84.0547 152.103C85.4424 148.769 86.7641 145.534 89.143 142.762C90.3324 141.408 91.6871 140.187 93.1739 139.164C94.6277 138.174 96.2797 137.579 97.7996 136.688C98.4934 136.325 98.0308 135.269 97.2709 135.401Z" fill="#2F76FF"/>
</g>
<g id="Group_69">
<path id="Vector_55" d="M112.569 130.45C109.298 130.945 106.126 132.265 103.317 133.981C101.93 134.84 100.608 135.83 99.3856 136.952C98.3944 137.876 97.1389 139.065 96.7754 140.418C96.7424 140.517 96.8746 140.583 96.9737 140.55C98.1631 139.956 99.1544 138.867 100.179 138.009C101.368 137.051 102.591 136.193 103.879 135.401C106.621 133.75 109.562 132.793 112.668 132.067C113.725 131.836 113.725 130.252 112.569 130.45Z" fill="#2F76FF"/>
</g>
<g id="Group_70">
<g id="Group_71">
<path id="Vector_56" d="M59.2083 153.456C59.2083 153.423 58.8449 153.126 58.6797 153.093C58.6466 153.192 58.6136 153.291 58.5806 153.39C58.5475 153.456 58.5145 153.522 58.4814 153.589C58.4814 153.622 58.4814 153.622 58.4814 153.655C58.5806 153.688 58.6797 153.721 58.7458 153.754C58.8779 153.853 58.9771 153.952 59.0762 154.051C59.1753 153.952 59.2414 153.853 59.3405 153.754C59.3405 153.622 59.2744 153.522 59.2083 153.456Z" fill="#2F76FF"/>
</g>
<g id="Group_72">
<path id="Vector_57" d="M59.4397 151.839C59.5058 151.872 59.5719 151.872 59.6379 151.905C59.6379 151.839 59.671 151.74 59.671 151.674C59.6049 151.74 59.5058 151.806 59.4397 151.839Z" fill="#2F76FF"/>
</g>
<g id="Group_73">
<path id="Vector_58" d="M63.7018 157.946C63.6357 157.979 63.6027 158.045 63.5366 158.078C63.6027 158.078 63.6688 158.078 63.7349 158.078C63.7349 158.045 63.7018 158.012 63.7018 157.946Z" fill="#2F76FF"/>
</g>
<g id="Group_74">
<path id="Vector_59" d="M77.711 144.148C77.7771 143.785 77.8101 143.422 77.8432 143.059C77.7441 143.323 77.678 143.587 77.5789 143.851C77.678 143.917 77.711 144.016 77.711 144.148Z" fill="#2F76FF"/>
</g>
<g id="Group_75">
<path id="Vector_60" d="M78.7023 138.834C78.3058 137.976 76.819 138.57 77.2154 139.428C77.3806 139.791 77.5128 140.187 77.6119 140.55C77.3146 140.583 77.0502 140.715 76.9181 140.979C76.9181 141.012 76.885 141.045 76.885 141.078C76.6868 141.177 76.5546 141.309 76.4555 141.54C76.3894 141.738 76.3233 141.97 76.2573 142.168C76.1251 142.102 75.9599 142.036 75.8277 141.97C75.9269 141.375 75.0348 141.012 74.6383 141.54C74.5392 141.672 74.4731 141.771 74.374 141.904C74.374 141.904 74.374 141.904 74.3409 141.904C73.9114 142.003 73.6471 142.366 73.7792 142.729C73.4158 143.224 73.0854 143.719 72.7219 144.214C72.4246 144.016 71.962 144.016 71.6977 144.313C71.4003 144.676 71.103 145.039 70.8056 145.402C70.7395 144.94 69.9796 144.676 69.517 145.138C67.7989 146.756 66.1139 148.406 64.3957 150.024C64.1975 150.057 64.0323 150.156 63.9001 150.288C63.3385 150.915 62.7768 151.542 62.2151 152.136C62.0499 152.334 61.9838 152.499 62.0168 152.664C61.7195 152.631 61.4221 152.664 61.0917 152.73C61.0587 152.136 61.2239 151.476 61.323 150.849C61.4221 150.156 61.5543 149.495 61.6534 148.802C61.8516 148.175 61.9838 147.515 61.9508 146.822C61.9177 145.964 60.53 146.063 60.4309 146.855C60.3318 147.449 60.2327 148.076 60.1335 148.67C59.9023 149.264 59.5719 149.793 59.1423 150.222C58.7789 150.057 58.2172 150.156 58.085 150.552C58.019 150.75 57.9529 150.915 57.8868 151.113C57.5564 151.278 57.1929 151.377 56.7965 151.443C56.8625 151.278 56.9286 151.146 56.9947 150.981C57.226 150.519 56.4991 150.321 56.3008 150.717C54.9131 153.159 55.7061 156.13 57.6885 157.979C59.9353 160.091 63.3385 160.19 66.1469 159.2C67.5676 158.705 68.7901 157.913 69.8805 156.955C75.2991 153.523 81.775 145.633 78.7023 138.834ZM59.4397 151.839C59.5058 151.773 59.5719 151.74 59.671 151.674C59.671 151.74 59.6379 151.839 59.6379 151.905C59.5719 151.905 59.5058 151.872 59.4397 151.839ZM58.7789 153.754C58.6798 153.688 58.5806 153.655 58.5146 153.655C58.5146 153.622 58.5146 153.622 58.5146 153.589C58.5476 153.523 58.5806 153.456 58.6137 153.39C58.6467 153.291 58.6798 153.192 58.7128 153.093C58.878 153.126 59.2414 153.423 59.2414 153.456C59.3075 153.523 59.3736 153.622 59.4397 153.721C59.3406 153.82 59.2414 153.919 59.1754 154.018C59.0102 153.919 58.911 153.82 58.7789 153.754ZM63.7019 157.946C63.7019 157.979 63.7019 158.045 63.7349 158.078C63.6689 158.078 63.6028 158.078 63.5367 158.078C63.6028 158.045 63.6689 158.012 63.7019 157.946ZM77.711 144.148C77.711 144.016 77.645 143.917 77.5789 143.818C77.678 143.554 77.7441 143.29 77.8432 143.026C77.8432 143.422 77.7771 143.785 77.711 144.148Z" fill="#2F76FF"/>
</g>
</g>
<g id="Group_76">
<path id="Vector_61" d="M77.6118 86.0862C71.268 86.0201 65.7172 90.5423 64.3956 96.3848C64.1643 96.979 63.9991 97.5731 63.867 98.2003C63.7348 98.3983 63.6357 98.5964 63.5696 98.8274C62.9419 98.7614 62.3141 98.9595 61.8515 99.4876C60.6621 100.907 62.4793 102.689 64.0322 102.26C64.8582 102.029 65.0564 101.6 65.0895 100.94C65.2216 100.841 65.3208 100.709 65.3538 100.577C65.3538 100.61 65.3538 100.61 65.3868 100.643C65.552 101.237 66.345 101.105 66.6754 100.775C67.3362 100.082 67.3362 98.9925 66.8406 98.2333C66.8406 98.2003 66.8406 98.2003 66.8737 98.1673C66.9067 98.2663 66.9728 98.3983 67.0058 98.4974C67.0389 98.6294 67.1049 98.7284 67.171 98.8274C67.5345 99.5206 68.6909 99.1905 68.6909 98.5304C68.8561 98.0682 69.0213 97.6061 69.1865 97.144C69.2195 97.144 69.2195 97.177 69.2526 97.177C69.3517 97.3421 69.4508 97.5071 69.583 97.6391C69.8473 97.9362 70.2438 97.9692 70.5742 97.8042C70.5742 98.0022 70.6403 98.2333 70.7064 98.4313C70.9376 98.9925 71.5984 98.9265 71.9619 98.5964C72.1932 98.7614 72.4245 98.9265 72.7218 98.9925C72.9531 99.0585 73.2505 99.0585 73.4817 98.8935C73.68 99.0255 73.9774 98.9925 74.2086 98.8935C74.2086 98.9265 74.2086 98.9595 74.2417 98.9595C74.3078 99.1905 74.4399 99.3226 74.5721 99.3556C74.4399 100.082 75.5633 100.28 75.9598 99.7847C76.6867 98.8604 77.4136 97.9032 78.1404 96.979C78.9334 96.4178 79.8255 95.9557 80.5854 95.4606C81.9731 94.5694 83.3939 93.381 83.9225 91.7636C85.0459 88.0997 80.6846 86.1192 77.6118 86.0862ZM69.9134 91.5986C69.9134 91.6646 69.9464 91.6976 69.9464 91.7636C69.9795 91.8957 70.0455 92.0277 70.0786 92.1267C69.9795 92.0607 69.8473 92.0607 69.7482 92.0607C69.7812 91.9617 69.7482 91.8627 69.7482 91.7636C69.7812 91.6976 69.8473 91.6646 69.9134 91.5986ZM78.4378 91.4005C78.57 90.7404 78.9004 90.9714 79.0325 91.4666C79.0986 91.7306 79.0656 92.0607 78.9665 92.2918C78.57 92.2257 78.3387 91.7966 78.4378 91.4005ZM74.8364 90.4103C74.7703 90.3113 74.7373 90.2122 74.6712 90.1132C74.7373 90.1132 74.8364 90.0802 74.9025 90.0802C74.9355 90.0802 74.9686 90.0802 74.9686 90.0802C74.9355 90.1792 74.8694 90.2782 74.8364 90.4103ZM75.1007 95.3946C75.1668 95.2625 75.2329 95.0975 75.2659 94.9324C75.299 94.9655 75.299 94.9985 75.332 95.0315C75.1999 95.3946 75.0677 95.7576 74.9686 96.1538C74.9355 96.0547 74.9355 95.9557 74.9025 95.8567C74.9686 95.6916 75.0347 95.5596 75.1007 95.3946ZM77.6118 94.3053C77.777 94.3383 77.9753 94.3383 78.1735 94.3383C77.9753 94.5693 77.81 94.8004 77.6118 95.0315C77.6448 94.7674 77.6448 94.5363 77.6118 94.3053ZM63.1401 100.808C62.8758 100.412 63.2392 100.148 63.5366 100.214C63.5696 100.28 63.5696 100.346 63.6027 100.379C63.6027 100.478 63.5696 100.577 63.5696 100.643C63.5696 100.676 63.6687 101.6 63.1401 100.808ZM80.5854 93.8432C80.5524 93.8762 80.5524 93.8762 80.5194 93.9092C80.7506 93.6121 80.9819 93.282 81.2462 92.9849C81.6758 92.9189 82.0062 92.5888 82.0062 92.1267C82.0062 92.0937 82.0062 92.0607 82.0062 92.0277C82.1714 91.8296 82.3366 91.5986 82.5018 91.4005C82.2044 92.3578 81.4114 93.216 80.5854 93.8432Z" fill="#2F76FF"/>
</g>
<g id="Group_77">
<path id="Vector_62" d="M58.6466 169.334C56.466 174.417 54.3844 179.599 52.3359 184.749C51.3116 187.29 50.2874 189.832 49.2962 192.374C48.338 194.816 47.2146 197.292 46.5869 199.866C46.5538 199.965 46.719 199.965 46.7521 199.899C48.1067 197.523 49.0649 194.915 50.1222 192.407C51.1795 189.898 52.2037 187.356 53.228 184.815C55.2765 179.764 57.3911 174.681 59.3074 169.598C59.4726 169.136 58.8118 168.937 58.6466 169.334Z" fill="#2F76FF"/>
</g>
<g id="Group_78">
<path id="Vector_63" d="M71.1691 62.6831C68.2946 56.5105 64.6601 50.602 60.8935 44.9246C60.5301 44.3634 59.5719 44.9906 59.9684 45.5847C63.6028 51.1962 67.3364 56.7416 70.1779 62.8152C71.5325 65.6869 72.689 68.6247 73.5811 71.6614C74.5392 74.9623 74.8366 78.3291 75.5635 81.663C75.5635 81.696 75.6626 81.729 75.6626 81.663C76.1252 78.5602 75.4313 75.1933 74.6714 72.1896C73.8454 68.9217 72.5898 65.7199 71.1691 62.6831Z" fill="#2F76FF"/>
</g>
<g id="Group_79">
<path id="Vector_64" d="M112.139 48.2914C109.1 50.9981 106.225 53.9029 103.317 56.7086C101.831 58.1279 100.377 59.5473 98.89 60.9667C97.4032 62.386 95.6521 63.8384 94.4626 65.5218C94.3635 65.6539 94.5287 65.7859 94.6609 65.7199C96.3129 64.6966 97.7667 63.1122 99.1874 61.7919C100.707 60.4055 102.194 58.9862 103.714 57.5998C106.787 54.7611 109.926 51.9553 112.866 48.9846C113.329 48.5225 112.569 47.8953 112.139 48.2914Z" fill="#2F76FF"/>
</g>
<g id="Group_80">
<path id="Vector_65" d="M53.8228 84.8318C51.7412 83.5114 49.5606 82.3231 47.4129 81.1018C45.4305 79.9795 43.349 78.4281 41.2013 77.735C40.7388 77.6029 40.2762 78.1311 40.7057 78.4941C41.6969 79.3194 43.0186 79.8475 44.1419 80.4416C45.1662 80.9698 46.1904 81.5309 47.2147 82.0591C49.2962 83.1483 51.3447 84.3036 53.4924 85.2609C53.7567 85.4259 54.0871 84.9968 53.8228 84.8318Z" fill="#2F76FF"/>
</g>
<g id="Group_81">
<path id="Vector_66" d="M38.2938 166.396C34.8907 168.772 31.8179 171.908 28.9764 174.912C27.5227 176.43 26.135 178.015 24.7803 179.665C24.1195 180.49 23.4587 181.316 22.8309 182.174C22.3353 182.867 21.6745 183.56 21.5093 184.418C21.4763 184.617 21.7075 184.683 21.8397 184.584C22.6657 184.121 23.1944 183.296 23.8221 182.57C24.516 181.778 25.2098 180.953 25.9037 180.16C27.1922 178.675 28.5469 177.223 29.9016 175.836C32.8422 172.866 36.0801 170.291 39.1859 167.485C39.9789 166.858 39.1529 165.802 38.2938 166.396Z" fill="#2F76FF"/>
</g>
<g id="Group_82">
<path id="Vector_67" d="M91.6872 181.019C90.8612 179.302 90.0352 177.553 89.2092 175.836C87.5902 172.535 86.2025 168.937 84.2531 165.802C83.7906 165.075 82.535 165.802 82.8324 166.561C83.5262 168.343 84.5505 170.027 85.4095 171.71C86.3016 173.427 87.1607 175.11 88.0528 176.827C88.8788 178.444 89.7378 180.094 90.5969 181.712C91.4559 183.362 92.2819 185.112 93.4053 186.597C93.6366 186.894 94.0992 186.597 94 186.267C93.4384 184.451 92.5132 182.735 91.6872 181.019Z" fill="#2F76FF"/>
</g>
<g id="Group_83">
<path id="Vector_68" d="M117.855 131.275C121.589 154.513 114.386 178.609 98.5265 196.004C96.2798 198.48 93.9009 200.824 91.3568 202.969C88.9448 205.049 86.2685 206.897 84.0218 209.109C83.6583 209.472 84.154 209.934 84.5504 209.769C87.2267 208.68 89.6717 206.765 91.9185 204.983C94.2313 203.134 96.445 201.088 98.4935 198.975C102.657 194.684 106.324 189.898 109.463 184.815C115.675 174.615 119.507 162.996 120.631 151.113C121.258 144.412 121.093 137.645 120.069 130.978C119.871 129.624 117.657 129.987 117.855 131.275Z" fill="#2F76FF"/>
</g>
<g id="Group_84">
<path id="Vector_69" d="M117.855 86.8784C114.914 91.6316 110.685 95.5926 105.597 97.9032C100.178 100.379 94.6607 100.709 88.7795 100.676C88.4491 100.676 88.1847 101.138 88.5812 101.27C89.209 101.501 89.8368 101.699 90.4645 101.864C89.9689 102.128 89.4733 102.425 88.9777 102.623C87.6891 103.152 86.3675 103.548 84.9798 103.878C83.3278 104.241 81.5106 104.571 79.7264 104.637C79.6603 104.076 78.7682 103.713 78.1735 104.043C77.8761 104.208 77.5788 104.373 77.2814 104.538C77.0501 104.505 76.8188 104.472 76.5545 104.439C76.4554 104.406 76.3893 104.571 76.4884 104.604C76.6206 104.637 76.7528 104.67 76.918 104.736C76.8519 104.769 76.8188 104.802 76.7528 104.835C76.0259 104.769 75.332 104.67 74.7043 104.472C74.6051 104.439 74.5391 104.571 74.6382 104.604C75.1007 104.802 75.5633 105.033 75.9928 105.231C74.506 105.99 72.9531 106.617 71.268 106.981C70.1116 107.212 68.9222 107.344 67.7327 107.41C66.5433 107.443 65.2547 107.245 64.0983 107.509C64.0652 107.509 63.9992 107.575 64.0322 107.608C65.7833 109.291 69.3847 109.159 71.5985 108.829C73.9774 108.466 76.3893 107.608 78.3387 106.155C78.57 106.221 78.8013 106.287 79.0325 106.32C80.6846 106.617 82.4357 106.617 84.0877 106.419C85.7067 106.221 87.3257 105.825 88.8456 105.198C89.9028 104.769 91.1914 104.274 92.1166 103.482C92.6782 103.185 93.1739 102.821 93.5703 102.359C97.9978 102.689 102.689 101.666 106.522 99.8837C112.139 97.3091 116.831 93.018 119.871 87.6706C120.697 86.3503 118.549 85.7561 117.855 86.8784Z" fill="#2F76FF"/>
</g>
<g id="Group_85">
<path id="Vector_70" d="M116.633 110.777C110.751 111.173 104.903 111.998 99.0551 112.658C93.2069 113.285 87.3257 113.912 81.4776 114.573C69.8804 115.827 58.2501 117.081 46.6529 118.402C40.0449 119.161 33.4037 120.019 26.7957 120.778C26.7296 120.778 26.7296 120.91 26.7957 120.877C50.2544 118.567 73.68 116.289 97.1057 113.846C103.648 113.153 110.256 112.724 116.765 111.767C117.392 111.635 117.227 110.711 116.633 110.777Z" fill="#2F76FF"/>
</g>
<g id="Group_86">
<path id="Vector_71" d="M147.426 107.905C143.858 107.773 140.19 108.268 136.622 108.499C133.021 108.763 129.419 109.159 125.818 109.39C125.752 109.39 125.752 109.489 125.818 109.489C129.518 109.324 133.252 109.324 136.952 109.159C140.455 108.994 144.089 109.06 147.558 108.532C147.922 108.466 147.79 107.905 147.426 107.905Z" fill="#2F76FF"/>
</g>
<g id="Group_87">
<path id="Vector_72" d="M159.222 121.636C157.14 121.405 154.927 121.867 152.845 122.032C150.83 122.197 148.781 122.363 146.766 122.561C142.602 122.924 138.472 123.518 134.309 123.947C134.243 123.947 134.243 124.013 134.309 124.013C138.572 123.848 142.834 123.782 147.096 123.518C149.111 123.386 151.127 123.254 153.175 123.122C155.191 122.99 157.405 123.089 159.387 122.561C159.982 122.396 159.783 121.702 159.222 121.636Z" fill="#2F76FF"/>
</g>
<g id="Group_88">
<path id="Vector_73" d="M170.423 113.978C164.178 114.143 157.933 114.936 151.722 115.596C145.642 116.256 139.563 116.949 133.516 117.873C132.823 117.972 132.988 119.029 133.682 118.963C139.794 118.434 145.84 117.675 151.92 116.916C158.098 116.124 164.343 115.431 170.423 114.143C170.555 114.143 170.522 113.978 170.423 113.978Z" fill="#2F76FF"/>
</g>
<g id="Group_89">
<path id="Vector_74" d="M167.085 104.307C162.294 104.043 157.438 104.472 152.647 104.769C147.823 105.033 143.032 105.33 138.208 105.792C137.547 105.858 137.514 106.782 138.208 106.782C143.131 106.65 148.054 106.254 152.944 105.891C157.636 105.561 162.427 105.363 167.085 104.472C167.218 104.472 167.184 104.34 167.085 104.307Z" fill="#2F76FF"/>
</g>
</g>
<g id="Group_90">
<path id="Vector_75" d="M183.506 113.351C181.425 110.677 181.326 107.509 182.813 104.538C180.863 107.179 181.227 111.008 183.341 113.45C183.407 113.516 183.606 113.45 183.506 113.351Z" fill="#2F76FF"/>
</g>
</g>
</g>
</g>
<defs>
<clipPath id="clip0_14_433">
<rect width="188" height="210" fill="white"/>
</clipPath>
</defs>
</svg>
